<?xml version="1.0" encoding="UTF-8"?>
<svg xmlns="http://www.w3.org/2000/svg" version="1.1" viewBox="0 0 85.6 53.98">
  <defs>
    <style>
      .st0 {
        fill: none;
        stroke: #2f4a9f;
        stroke-width: 1; }
 
      .st1 {
        stroke: #231f20;
        stroke-width: .2px;
        stroke-miterlimit: 10;
        fill: none;
      }
 
      .st2 {
        fill: #2f4a9f;
      }
    </style>
  </defs>
  <g id="Card_outline">
    <rect class="st1" x="0" y="0" width="85.6" height="53.98" rx="3" ry="3"/>
  </g>
  <g id="Frame_blue">
    <rect class="st0" x="2" y="2" width="81.6" height="49.98" rx="2" ry="2"/>
  </g>
  <g id="back_text" font-family="Futura, sans-serif" font-size="3.53" fill="black">
    <text x="50%" y="12" text-anchor="middle">This is a Membership Card for the</text>
    <text x="50%" y="24" text-anchor="middle">If you have found this card, and it does not</text>
    <text x="50%" y="28" text-anchor="middle">belong to you, please contact</text>
    <text x="50%" y="35" font-size="4.23" text-anchor="middle" fill="#ed2224" font-weight="bold">info@esds.org.uk</text>
  </g>
  <g id="Big_Logo" class="st2" transform="translate(6.2, 0) scale(0.3)">
    <g>
      <g>
        <path d="M189.18,60.31v-2.96c.52.68,1.08,1.02,1.68,1.02.23,0,.41-.06.56-.17s.21-.26.21-.44c0-.25-.16-.5-.47-.74l-.43-.32c-.29-.21-.53-.41-.73-.62-.2-.21-.37-.42-.49-.63-.13-.22-.22-.44-.28-.67-.06-.23-.09-.48-.09-.73,0-.44.11-.9.32-1.38.11-.22.23-.43.37-.61s.3-.35.48-.49c.5-.41,1.1-.61,1.81-.61.63,0,1.26.16,1.9.48v2.88c-.21-.32-.46-.57-.73-.76-.28-.19-.54-.28-.81-.28-.2,0-.37.06-.5.17-.14.11-.2.24-.2.4,0,.25.18.5.54.75l.42.3c.56.39.96.78,1.2,1.19.25.41.37.88.37,1.43,0,.93-.29,1.69-.88,2.29s-1.33.9-2.23.9c-.62,0-1.29-.13-2-.4Z"/>
        <path d="M202.51,55.86c0,1.44-.34,2.6-1.02,3.5-.68.9-1.56,1.34-2.64,1.34-.96,0-1.79-.34-2.48-1.03-.87-.87-1.3-2.18-1.3-3.92s.45-2.94,1.36-3.83c.67-.65,1.47-.98,2.39-.98,1.13,0,2.03.44,2.69,1.33.67.89,1,2.08,1,3.58ZM199.77,55.88c0-1.7-.31-2.56-.94-2.56-.31,0-.56.22-.75.67-.18.41-.27,1.02-.27,1.83s.09,1.41.26,1.85c.17.44.41.66.71.66s.55-.22.72-.65c.18-.43.27-1.03.27-1.8Z"/>
        <path d="M209.14,57.65l-.15,2.72c-.59.23-1.11.34-1.58.34-1.09,0-2.01-.39-2.76-1.16-.84-.87-1.25-2.09-1.25-3.68,0-1.48.39-2.68,1.18-3.58.79-.89,1.83-1.34,3.15-1.34.43,0,.86.08,1.3.23v2.69c-.39-.38-.8-.57-1.21-.57-.54,0-.96.22-1.27.67-.3.45-.46,1.07-.46,1.85,0,.38.04.72.11,1.02.08.3.18.56.33.76s.32.37.52.48.44.16.71.16c.46,0,.91-.2,1.37-.61Z"/>
        <path d="M212.81,60.54h-2.64v-9.42h2.64v9.42Z"/>
        <path d="M214.18,60.54v-9.42h4.91v2.21h-2.27v1.37h2.03v2.13h-2.03v1.44h2.27v2.26h-4.91Z"/>
        <path d="M223.63,60.54h-2.64v-7.16h-1.46v-2.26h5.61v2.26h-1.51v7.16Z"/>
        <path d="M230.66,60.54h-2.64v-3.99l-2.43-5.43h2.76l.47,1.4c.09.27.18.53.25.79.07.25.14.49.2.73.1-.35.18-.64.25-.89.07-.25.14-.45.19-.61l.48-1.41h2.74l-2.27,5.43v3.99Z"/>
      </g>
      <g>
        <path d="M10.39,60.54v-9.42h4.91v2.21h-2.27v1.37h2.03v2.13h-2.03v1.44h2.27v2.26h-4.91Z"/>
        <path d="M16.43,60.54v-9.42h2.28c1.3,0,2.32.34,3.05,1.01.95.88,1.43,2.12,1.43,3.7s-.4,2.77-1.21,3.62c-.69.72-1.71,1.09-3.08,1.09h-2.47ZM19.07,58.27c.95-.04,1.42-.83,1.42-2.35,0-.75-.12-1.35-.36-1.78-.24-.44-.57-.66-.98-.66h-.08v4.8Z"/>
        <path d="M26.95,60.54h-2.64v-9.42h2.64v9.42Z"/>
        <path d="M28.32,60.54v-9.42h2.52l1.32,3.31c.07.2.15.42.24.67.09.25.19.54.3.87l.27.83c-.1-.82-.17-1.52-.22-2.1s-.08-1.07-.08-1.46v-2.12h2.52v9.42h-2.52l-1.33-3.47c-.14-.37-.27-.72-.38-1.04-.11-.32-.21-.63-.29-.92.06.66.1,1.24.12,1.73s.04.92.04,1.29v2.4h-2.52Z"/>
        <path d="M36.58,60.54v-9.42h3.07c1.15,0,2,.24,2.55.73.56.5.84,1.15.84,1.94,0,1.18-.61,1.82-1.82,1.92.69.1,1.2.32,1.52.66.32.34.48.83.48,1.48,0,.81-.27,1.46-.82,1.95-.54.5-1.25.74-2.13.74h-3.7ZM39.22,54.78h.18c.32,0,.57-.07.75-.21.18-.14.28-.34.28-.6,0-.55-.31-.82-.93-.82-.03,0-.07,0-.11,0-.04,0-.1,0-.16,0v1.62ZM39.22,58.5c.05,0,.1,0,.13,0s.07,0,.09,0c.33,0,.59-.08.79-.25.2-.17.29-.39.29-.67s-.1-.5-.29-.66c-.2-.16-.47-.24-.81-.24h-.21v1.81Z"/>
        <path d="M48.35,51.12h2.64v6.66c0,.56-.09,1.01-.27,1.35-.18.36-.47.69-.89.98-.56.39-1.24.59-2.03.59-.9,0-1.66-.22-2.27-.65-.78-.55-1.17-1.43-1.17-2.64v-6.3h2.64v6.08c0,.41.05.7.16.87.1.17.28.26.52.26s.43-.08.53-.24c.1-.17.15-.46.15-.88v-6.08Z"/>
        <path d="M59.31,60.54h-2.86l-1.3-3.36c-.01-.06-.04-.13-.07-.23-.03-.09-.07-.21-.12-.34l.02.62v3.29h-2.63v-9.42h2.71c1.19,0,2.08.23,2.67.68.75.58,1.13,1.4,1.13,2.46,0,1.14-.5,1.93-1.51,2.36l1.96,3.92ZM55,55.49h.18c.3,0,.56-.11.76-.34.2-.22.3-.51.3-.85,0-.7-.38-1.06-1.15-1.06h-.1v2.25Z"/>
        <path d="M63.44,55.1h3.69v.39c0,1.81-.28,3.12-.84,3.92-.61.87-1.52,1.31-2.72,1.31s-2.1-.43-2.77-1.28c-.67-.86-1-2.05-1-3.55s.34-2.73,1.01-3.61c.67-.88,1.59-1.32,2.76-1.32,1.55,0,2.67.78,3.36,2.33l-2.56.9c-.04-.3-.13-.53-.26-.7s-.31-.26-.52-.26c-.73,0-1.09.96-1.09,2.89,0,.82.08,1.41.24,1.78s.42.56.77.56c.14,0,.27-.03.38-.1.11-.06.21-.16.29-.27.08-.12.14-.26.18-.43.04-.17.07-.36.07-.56h-.98v-1.98Z"/>
        <path d="M74.8,60.54h-2.64v-3.79h-1.26v3.79h-2.64v-9.42h2.64v3.33h1.26v-3.33h2.64v9.42Z"/>
      </g>
      <g>
        <path d="M135.06,62.25v-12.95h3.14c1.79,0,3.19.46,4.19,1.39,1.31,1.21,1.97,2.91,1.97,5.09s-.55,3.81-1.66,4.98c-.95,1-2.36,1.49-4.23,1.49h-3.4ZM138.69,59.12c1.3-.06,1.95-1.14,1.95-3.24,0-1.03-.17-1.85-.5-2.45-.33-.6-.78-.91-1.34-.91h-.11v6.59Z"/>
        <path d="M155.52,62.25h-3.75l-.27-1.64h-2.45l-.3,1.64h-3.75l3.23-12.95h4.44l2.85,12.95ZM151.07,57.83l-.24-1.51s-.02-.08-.04-.23c-.01-.12-.07-.61-.18-1.46-.01-.1-.03-.23-.04-.39-.02-.17-.04-.37-.07-.62l-.11-1.23c-.01.12-.03.25-.05.39s-.04.3-.07.48c-.04.35-.07.59-.09.72s-.03.22-.04.24l-.25,1.57-.37,2.03h1.53Z"/>
        <path d="M156.84,62.25v-12.95h3.47l1.82,4.55c.1.27.21.58.34.92.12.35.26.75.41,1.2l.37,1.14c-.13-1.12-.24-2.09-.3-2.89s-.1-1.47-.1-2.01v-2.91h3.47v12.95h-3.47l-1.83-4.77c-.19-.51-.36-.99-.52-1.43-.15-.44-.29-.87-.41-1.27.08.91.13,1.71.17,2.38.03.68.05,1.27.05,1.78v3.31h-3.47Z"/>
        <path d="M176.14,58.26l-.21,3.74c-.81.31-1.53.47-2.17.47-1.5,0-2.77-.53-3.8-1.59-1.15-1.19-1.73-2.88-1.73-5.06,0-2.04.54-3.68,1.62-4.92,1.08-1.23,2.52-1.85,4.33-1.85.59,0,1.18.11,1.79.32v3.7c-.54-.52-1.09-.78-1.66-.78-.74,0-1.32.31-1.74.91-.42.62-.63,1.47-.63,2.55,0,.53.05,1,.16,1.41.1.41.25.76.45,1.05s.43.5.72.65.61.23.98.23c.63,0,1.26-.28,1.89-.84Z"/>
        <path d="M177.83,62.25v-12.95h6.75v3.04h-3.12v1.89h2.8v2.93h-2.8v1.98h3.12v3.11h-6.75Z"/>
      </g>
      <path d="M79.15,60.94v-4.07c.71.94,1.49,1.41,2.32,1.41.31,0,.57-.08.77-.24.2-.16.3-.36.3-.6,0-.35-.22-.69-.65-1.02l-.59-.44c-.4-.29-.73-.57-1.01-.85-.28-.28-.51-.57-.68-.87-.17-.3-.3-.61-.38-.93-.08-.32-.12-.65-.12-1.01,0-.6.15-1.24.44-1.9.15-.31.31-.59.51-.84.19-.25.41-.48.66-.68.69-.56,1.51-.84,2.48-.84.87,0,1.74.22,2.61.66v3.96c-.3-.44-.63-.79-1.01-1.04s-.75-.38-1.12-.38c-.28,0-.51.08-.69.23-.19.15-.28.33-.28.55,0,.35.25.69.74,1.03l.57.41c.77.53,1.32,1.08,1.65,1.64.34.56.5,1.21.5,1.96,0,1.28-.4,2.33-1.21,3.15-.81.83-1.83,1.24-3.07,1.24-.85,0-1.77-.18-2.74-.55Z"/>
      <path d="M99.26,65.25h-3.5l-.84-4.54c-.16-.88-.28-1.64-.37-2.28-.04-.32-.08-.58-.1-.8-.03-.21-.05-.38-.06-.49-.03.23-.07.66-.13,1.28-.03.32-.06.65-.1,1.01-.04.35-.09.72-.15,1.12l-.69,4.7h-3.54l-3-12.95h3.59l.59,3.56c.23,1.42.38,2.54.47,3.35l.12,1.18.11-1.02c.12-1.19.28-2.31.47-3.38l.68-3.7h3.13l.61,3.11c.29,1.45.54,3.16.76,5.14.06-.89.13-1.68.21-2.37.08-.69.16-1.31.25-1.87l.66-4.02h3.54l-2.73,12.95Z"/>
      <path d="M107.49,62.13h-3.63v-12.95h3.63v12.95Z"/>
      <path d="M109.26,65.08v-12.95h3.47l1.82,4.55c.1.27.21.58.34.92.12.35.26.75.41,1.2l.37,1.14c-.13-1.12-.23-2.09-.3-2.89s-.1-1.47-.1-2.01v-2.91h3.47v12.95h-3.47l-1.83-4.77c-.19-.51-.36-.99-.52-1.43-.15-.44-.29-.87-.4-1.27.08.91.13,1.71.17,2.38.03.68.05,1.27.05,1.78v3.31h-3.47Z"/>
      <path d="M125.2,53.94h5.07v.54c0,2.49-.38,4.29-1.16,5.39-.84,1.2-2.09,1.8-3.74,1.8s-2.89-.59-3.82-1.76c-.92-1.19-1.38-2.81-1.38-4.88s.46-3.75,1.38-4.96c.92-1.21,2.19-1.81,3.79-1.81,2.12,0,3.67,1.07,4.62,3.21l-3.52,1.24c-.05-.41-.17-.73-.36-.97-.19-.24-.42-.36-.71-.36-1,0-1.5,1.32-1.5,3.97,0,1.12.11,1.94.33,2.45.22.51.57.76,1.05.76.19,0,.37-.04.52-.13.16-.09.29-.22.39-.38s.19-.36.25-.59c.06-.23.09-.49.09-.78h-1.34v-2.73Z"/>
    </g>
  </g>
  <g id="Dancers" transform="translate(3.5, 36) scale(0.32)">
    <g>
      <path d="M229.23,14.07c0,.33.34.46.5.65.46.54.34,2.3.19,2.99-.16.74-.57,1.04-.3,1.89.16.5.59.85.87,1.27.46.7,1.03,1.99,1.2,2.8.19.9,0,1.99-.33,2.85-.17.11-.58-.18-.76-.23-.23-.06-1.89-.19-2-.12-.2.38-.14.84-.24,1.27-.08.33-.52,1-.52,1.19-.02.62.59,1.32.64,1.9l.35.16.12.56c-.26.25-.66.22-.91.32s-.23.48-.76.56c-.21.03-.92.05-1.1.01-.05-.01-.05-.1-.11-.13-.77-.35-.39-.32-.18-.81.16-.37.55-1.66.58-2.04.03-.33-.17-.5-.48-.62-.28-.11-.26.05-.44.03s-.34-.19-.46-.32c-.53-.57-.86-1.41-1.32-2.07-.89-1.28-1.98-2.06-3-3.18-.21-.23-.32-.64-.64-.68-.36-.04-.45.05-.67.3-.32.37-.84,1.06-1.09,1.47-.1.16-.1.4-.22.54-.14.15-.48.17-.54.25-.08.11-.05.37-.17.57-.24.38-.99.91-1.31,1.33-.4.54-.69,1.09-1.2,1.57-.46.43-.52.19-.95.32-.1.03-.15.16-.24.18-.31.08-.83-.72-.7-1.01.13-.2.83-.13,1.06-.22.1-.04.09-.17.16-.19.04-.01.22.05.31,0-.17-.28-.63-.31-.63-.7.53-.57,1.4-3.03,2.11-3.23.15-.04.32.06.35.04.03-.02.24-.5.25-.54.22-.84.33-1.95.39-2.83.01-.16.14-.3.14-.48,0-.07-.09-.62-.11-.65-.02-.03-.45-.27-.5-.27-.31-.03-1.11,1.06-1.57,1.15-.66.13-1.25-.5-1.6-.95-.13-.17-.87-1.22-.88-1.33-.01-.11.14-.21.1-.3-.05-.11-.33-.24-.38-.39-.09-.29.27-1.11.69-1.11.57.8,1.02,1.72,1.71,2.42h.14c.12-.15.37-.31.44-.47.08-.19.02-.42.15-.58.21-.26.9-.64,1.16-.99.15-.2.01-.48.52-.39.12-.08-1.04-.88-1.09-.96-.2-.29-.02-1.22.17-1.53.36-.6.62-.38,1.24-.51.68.18,1.17,1.11,1.17,1.75,0,.18-.22.34-.14.57.7.14,1.41.08,2.13.03.21.05.25.27.39.38s.29.16.42.28c.48.46.27.88,1.21.74.5-.07.67-.42,1-.68.41.41.58.08.92.07.19,0,.42.12.64.14.46.03.94-.01,1.4-.01l.97-1.11c-.43-.04-.31-.42-.5-.67-.07-.09-.25-.15-.26-.22-.02-.09.11-.29.09-.45-.04-.43-.59-1.04-.32-1.45.07-.1.27-.06.35-.23s.12-.67.05-.84c-.05-.11-.3-.23-.35-.35,0-.02-.08-.39-.07-.41.09-.42.7-.06.82-.13l-.14-.34c.84.13.62.75.6,1.37.14.08.28.05.43.13.12.06,1.06.75,1.17.85.5.48.14.55.22.87.04.16.37.23.33.47-.04.27-.33.51-.63.46ZM223.85,22.46c0-.47.27-1.24.52-1.65.29-.47,1.14-.9,1.53-1.32.43-.46,1.02-1.53.81-2.15-.13-.37-.35-.23-.62-.29-.29-.07-1.56-.54-1.71-.51-.29.06-.38.52-.48.69-.15.26-1.12.69-1.44.73-.84.09-1.05-.17-1.66-.61-.03.31.21.55.32.82.29.73.38.76.76,1.39s.64,1.36,1.05,1.99c.09.14.73,1.11.92.92ZM225.83,26.62c-.04-.36-.02-1.27-.6-1.16-.27.05.05.3.09.39.14.33.03.63.51.77Z"/>
      <path d="M178.65,31.7c-.09-.31.08-.62.13-.93.1-.55.21-.82.33-1.32.15-.63.27-1.27.39-1.91-.94.34-.88-.77-.95-1.36-.07-.12-.25.09-.42.07-.41-.04-1.2-1.25-1.49-1.57l-1.29,3.94c-.22.98-.05,1.25.76,1.82.25.17.73.21.7.58-.16,0-.3.08-.46.07-.31,0-2.09-.29-2.36-.39-.71-.27-.11-.74.07-1.06.44-.78.44-2.96.75-4.05.02-.06.05-.16-.02-.16-.59.19-1.14.49-1.77.54-.29.03-.73-.05-.97.02-.32.09-.81,1.22-.95,1.54-.51,1.15-.97,2.19-.87,3.46.03.37.47,1.17-.25,1.18-.5,0-.58-.23-.85-.54-.13-.14-.3-.1-.32-.38-.02-.32.57-1.25.69-1.71.2-.82.12-1.82.39-2.62.13-.39.71-1.17.68-1.52,0-.05-.25-.42-.31-.58-.6-1.63-1.28-4.19.06-5.59.27-.28.82-.43.67-.94-.29-.05-.5-.11-.6-.4-.11-.31-.32-1.43-.31-1.75.02-.61.19-1.49.99-1.43.08-.04.19-.76.18-.86-.02-.16-.35-.13-.21-.74.04-.18.45-.95.56-1.16.17-.32.58-.49.94-.53.45-.05.4.28.58.36.14.07.31,0,.47.1.26.17.15,1,.26,1.32.05.15.31.26.33.36,0,.06-.12.19-.14.33-.02.18.08.47.06.54-.03.12-.32.12-.27.31.42.05.76-.08,1.12-.25s.77-.38.94-.73c.36-.74,1.06-1.54,1.04-2.4,0-.14-.11-.27-.12-.41-.01-.13-.08-.83-.07-.87.09-.27.51-.18.7-.01.4.34.23.86.28,1.33.85-.55,2.09.31,2.12,1.2,0,.21-.18.6,0,.74.03.02.67.33.71.34.71.18,1.23.15,1.91.61.54.37,1.72,2.17,1.77,2.8.06.84-.95,1.31-1.68,1.4-.05.05-.15.55-.15.64,0,.08.65,1.06.76,1.3,1.17,2.58,0,3.89-.94,6.16-.26.61-.44,1.25-.69,1.85-.32.76-.73,1.49-.99,2.28-.29.24-.78-.15-.92.17-.09.19.15.4.22.57.02.07-.14.23-.17.23h-1.03ZM176.33,19.35c-.3-.24-.33-1.21-.28-1.56s.79-2.36.98-2.67c.15-.24.61-.3.76-.57l-.31-.77c-.2-.05-.46.66-.57.81-.45.6-1.41.79-1.94,1.33.35.23.73.45.71.92-.26.07-.2-.13-.31-.21-.19-.14-.81.09-1.02.22.02.69-.61,1.44-.71,2.08-.06.37.12,1.23.33,1.54.27.39,1.37.85,1.81,1.21.48.39.74,1.04,1.27,1.36.15,0,.53-.55.61-.7.41-.75.33-1.4.6-2.08.17-.43.86-.92.02-1.1-.09.08.42.48.11.48l-.72-.54c-.3.26-1.01.51-1.35.24ZM182.24,16.46c-.06-.03-.2-.05-.2.01.09.17.15,1.19.32,1.19.34-.33.59-.39.25-.85-.02-.03-.35-.34-.37-.35ZM177.45,18.14h1.24c.11-.08.11-.08.08-.21-.04-.16-.41-.8-.57-.82l-.6.07-.14.95ZM180.35,22.43c-.08-.07-.56.28-.6.34-.04.06.01.2-.03.3-.14.37-.31.72-.42,1.1-.01.14.27.17.33.41.12.52-.28,1.09.12,1.52.08-.27,0-.56.05-.83.03-.2.23-.49.24-.64.02-.23-.08-.56-.04-.87.05-.43.37-.85.35-1.34Z"/>
      <path d="M17.32,10.34c.1.06.44-.06.64.14.05.05.17.39.18.46.03.25-.06.55.03.85.06.21.33.36.34.56,0,.15-.13.22-.14.33,0,.14.1.33.07.55-.02.17-.17.26-.15.44.22-.03.31.17.49.24.31.12.82.15,1.16.29.08-.02.31-.52.3-.57,0-.06-.15-.12-.18-.22-.06-.18-.01-.52-.1-.72-.05-.11-.19-.07-.2-.21-.02-.21.13-.33.15-.48.01-.12-.07-.24-.06-.33.02-.16.09-.9.14-1,.23-.46,1.05-.78,1.57-.73.7.07,1.44,1.01,1.44,1.66,0,.61-.63.9.07,1.42.84.62,1.71.62,2.2,1.74.29.66.18,1.07.27,1.7.06.4.34.96.45,1.39.33,1.27.87,2.89.48,4.14-.19.59-.92,1.7-.98,2.23-.02.18.26.68.33.91.06.19.03.39.07.54.1.33,1.51.67,1.85.79.25.09.47.24.72.32.45.14,1.83.35,2.06.66.1.13.09.31.05.46-.09.33-1.09,2.29-1.32,2.52s-.65.49-.98.44c-.11-.39.32-.65.18-1.02-.09-.18-1.55-.61-1.88-.76-.79-.36-1.57-1.01-2.34-1.34-.08-.04-.14-.09-.25-.06-.07.06.35.96.4,1.14.15.5.5,1.96.44,2.41-.05.35-.22.42-.54.49-.74.17-2.45.52-3.14.42-.29-.04-.58-.33-.32-.57.32-.29,1.09-.29,1.24-.88l-.07-.15c-.34-.18-.67-.66-.74-1.02-.19-.99-.45-3.44-.29-4.38.13-.74.77-1.38,1.05-2.07l-.92.57c-.13.62-.38.83-.98,1.03-.01.32.04.67-.01.99-.08.5-.35,1.37-.51,1.88-.22.72-.87,1.96-.72,2.66.13.59.58.63,1,.93-.13.35-.73.39-1.05.34-.46-.08-1.05-1-1.02.27l-.21-.03-.06-.08c.05-.37-.12-.78-.08-1.13.03-.25.26-.56.35-.82.29-.85.17-1.67.38-2.54.1-.42.88-2-.12-1.81-.53.1-2.31,1.26-2.62,1.67-.16.21-.15.45-.31.65-.07.07-.13.03-.18-.04s-.26-.94-.25-1.05c.02-.34.34-.46.36-.78-.21-.05-.52.2-.56-.1.08-.1.2-.13.3-.18.52-.25.82-.25,1.34-.28.17-.01,1.75-1.06,1.77-1.16l-.06-.22c-.05-.06-.97-.15-1.14-.16-.29,0-.6.16-.88.04-.09-.04-.18-.2-.29-.27-.33-.2-.64-.33-.94-.58-.36-.3-.59-.72-1.03-.92.26-1.13,1.12-1.63,1.97-2.29.11-.09.16-.23.28-.34.17-.14.78-.37.83-.49.17-.98-.71-1.9-.82-2.77-.1-.77.12-1.76.2-2.53-.35.13-.92,0-.89-.43,0-.13.14-.26.12-.41-.02-.19-.31-.25-.29-.68.03-.47.71-1.41.96-1.85.09-.06.82-.25.9-.25.36,0,.43.42.47.44ZM21.32,18.27c-.28.11.17.9.32.88.16-.03.06-.16.03-.23-.1-.22-.31-.4-.34-.65Z"/>
      <path d="M82.52,10.31c.06.05.3.36.32.43.04.24-.1.34-.12.5-.05.44-.07.89.12,1.31-.47.11-.44.76-.58.92-.26.28-.73-.24-1.02.41-.14.32,0,.42,0,.7.01.89.06,1.77.07,2.66.1.49,1.71.57,2.13.52.47-.06.75-.49,1.17-.49.51,0,.87.41,1.51.35.32-.03,2.52-.72,2.62-.9-.08-.25.03-.43.04-.66,0-.12-.08-.25-.07-.41.02-.5.5-1.44.43-1.82-.06-.34-.7-.19-.84-.46,0-.36.15-.67-.1-1,.68-.45.24-1.42.79-1.89.42.09.59-.34.84-.38.28-.05.84.12,1.05.31.09.09.69,1.29.74,1.45.04.14.08.28.07.43-.01.16-.18.35-.12.45.05.09.25.15.33.24.77.78,1.1,1.15,2.21,1.31.59.09,1.07.32,1.66.38.59-.26.74-1,1.52-.82.09.31.45.37.4.77l-.43.04c.16.21.58-.03.58.31-.23.08-.53.03-.74.09-.19.05-.47.33-.76.39-.45.08-1.74.06-2.23.02s-.97-.23-1.45-.35c-.15,0-.42.19-.46.33-.08.27-.02,1.84.06,2.14.05.18.25.45.37.62.18.26,1.19,1.45,1.4,1.58.3.19,1.05.3,1.46.48.64.27,1.67,1.06,1.62,1.79-.04.56-.31.56-.62.87-.45.45-.91,1.14-1.56,1.29-.83.2-.26-1.22-1.26-.46-.14-.02-.25-.41-.46-.47-.44-.13-.93.66-1.26-.07h-.1c-.09-.01-.13.04-.18.09-.12.1-.83,1.04-.88,1.17s-.15.92-.13,1.06.23.4.3.62c.24.76.2,1.72.52,2.5.14.33.9.78.92,1.2,0,.37-.39.49-.52.75-.18.4-.1.87-.53,1.24-.29.25-1.76.44-2.09.21-.41-.29.5-1.16.58-1.45.14-.5-.73-3.33-.91-4.05-.05-.19,0-.4-.03-.6-.05-.24-.3-.55-.34-.86-.05-.46.4-1.11.15-1.45-.03-.04-.72-.2-.87-.29-.18-.11-.32-.47-.48-.5-.11-.02-.43.08-.65.06-.36-.04-.76-.25-1.19-.14.01-.18.02-.34-.14-.45.08-.13.45-.15.49-.19.05-.04,0-.21.13-.26.18-.06.47.04.73-.06.14-.06.32-.29.46-.4.1-.08.29-.11.36-.21.16-.21,0-.4.01-.62.04-.63.56-1.19.99-1.63.39-.39.64-.26.72-.91.02-.13.01-.25,0-.38-.69.13-1.37.34-2.07.41-.36.04-.83-.05-1.15.01-.14.03-.88.43-1.07.5-.56.22-.87-.02-1.43-.02.09.61-.44.51-.9.49-.63-.03-1.39-.22-2.03-.21-.76,0-.73.97-.67,1.53.59.4,2.27,1.48,2.28,2.2,0,.51-.5,1.12-.88,1.44-.45.38-1.29.64-1.4,1.23-.08.41-.23.85-.29,1.18-.15.86-.01,2.28-.07,3.21-.02.27-.08.95-.29,1.12-.16.13-.39.04-.37.2.07.49,1.11.47,1.09,1.01-.07.1-1.07.08-1.26.06-.15-.01-.29-.11-.45-.13-.29-.04-.56.03-.86-.08-.62-.22-.11-.88-.04-1.29.09-.56-.11-1.14-.07-1.67.05-.61.38-1.37.43-2.09.02-.22,0-.44,0-.66-.31.23-.49.24-.87.14.03.5-.21.92-.15,1.43.06.44.69.89.04,1.13-.57-.32-1.06-.94-1.28-1.53s-.04-.47-.46-.95-.36-.98.24-1.24c.33-.14.61-.29.93-.43.3-.13,1.24-.32,1.26-.67s-.75-1.66-.88-2.09c-.36-.22-.74-.56-1.08-.77-.52-.32-.76-.05-.63-.96.22-1.54,1.59-3.83,2.36-5.26.4-.75.63-1.35,1.47-1.8.35-.19.89-.25,1.04-.67.21-.59-.38-1.05.11-1.78.58-.85,1.86-1.01,2.66-.36Z"/>
      <path d="M195.04,13.34c-.34.2-.98-.19-.89.43,0,.04.25.65.27.68.07.11.38.29.52.44.17.19.36.55.49.68s1.11.76,1.32.89c.42.25,2.72,1.27,3.11,1.32.29.04.57-.14.89.02.08,0,.28-1.29.31-1.46.06-.37-.07-.75.19-1.1.29-.39,1.33-.25,1.43-.44l-.25-.23c-.06-.11.14-.42-.03-.7-.04-.07-.2,0-.13-.2.47-.38.18-.95.27-1.43.07-.35.38-.24.56-.34.1-.05.21-.37.4-.43.24-.07.86.13,1.03.33.1.11.73,1.11.76,1.22.16.51-.16.56-.16.76,0,.15.2.27.13.52-.15.32-.45.26-.76.25-.09.57.42.53.76.71,1.16.62.81,1.59.23,2.5-.27.43-.97.92-.85,1.46.01.05.62.57.64.74l2.3,4.36c-.46.05-.74-.06-1-.43-.6-.09-1.32-.09-1.9-.18-.13-.02-.23-.17-.38-.13-.17.48-.52.88-.75,1.33-.11.23-.49,1.06-.5,1.26,0,.26.3,1.19.48,1.4.13.16.45.22.39.53-.04.25-.51.68-.66.92-.1.15-.08.34-.23.52-.21.25-.52.31-.83.22-.36-.24.82-1.32.56-1.79-.07,0-.13.08-.17.14-.28.42-.8,1.62-.78,2.11.02.56.75,1.63-.42,1.64-1.06,0-.13-1.49-.3-2.09.36-.58.26-1.27.35-1.88s.46-1.21.19-1.75c-.09-.19-.24-.27-.33-.42-.22-.35-.31-1.22-.41-1.69-.15-.72.01-1.28-.97-1.3-.52,0-.68.39-1.34.08-.3-.14-1.26-1.21-1.21-1.46.04-.16.42-.16.55-.21.94-.33,1.88-.7,2.82-1.04l.33-1.08c-.61-.31-1.14-.14-1.78-.07-.2.02-.42-.02-.62,0-.49.06-.72.44-1.33.34-.04-.5-.46-.52-.78-.74-.21-.15-.28-.44-.43-.53-.24-.14-1.1-.1-1.44-.16-.37-.07-.75-.28-1.13-.32l-.79,2.95v.72c.45,1,1.23,1.98,1.65,2.98.53,1.24-.36,2.38-.67,3.58-.19.73-.21,1.51-.33,2.25l.05.11c.75.11,1.7.69.41.92.17.26.56.11.79.3.28.23.04.54-.23.64-.64.24-1.35.09-2,.1-.48,0-1.09.25-1.5-.11.02-.25-.03-.54,0-.79.03-.2.22-.41.21-.54,0-.03-.3-.14-.27-.46.03-.37.44-.69.53-.98.2-.63.2-1.6.3-2.27.07-.44.28-.63.2-1.15-.05-.3-.18-.22-.31-.37-.46-.54-.64-1.26-1.02-1.85-.41-.62-1.05-1-1.35-1.73-.47-1.14.25-2.08.31-3.23-.26,0-.37.47-.63.17,0-.1.83-.7.92-.87.2-.42.16-1.24.25-1.71.18-.86.76-2.81,1.7-3.14.17-.06.37-.02.52-.11.04-.03.26-.42.28-.47.18-.59-.35-.87.09-1.66.6-1.07,1.96-1.25,2.66-.18.25.39.03.97,0,1.41,0,.15.08.28.07.4-.02.17-.51.55-.36.9Z"/>
      <path d="M131.65,23.14c-.39.43-.07.88.48.82.19.08.36.22.35.37-.3.64-.4,1.23-.39,1.93.18.38-.43,1-.63,1.35-.53.84-1.36,1.94-2.13,2.55-.2.06-1.52-.45-1.78-.57-.19-.09-.55-.4-.74-.36-.19.05-.15.14-.09.28.11.26.94,1.11,1.19,1.28.14.1.4.13.44.29.03.1-.06.16.04.29.03.04.54.45.57.46.12.04.53-.31.64-.37.34-.29.54-.9.85-1.26.46-.53,1.52-.96,1.97-1.58.18-.11.53-.89.74-.67,1.36,1.86,3.66,2.93.07,3.79-.22.47,1.88.46,2.11.36.33-.15.6-.48.94-.35.09-.09.72-.42.62-.62-.23-.62-.49-.79-1-1.09-.26-.22-.8-1.95-1.01-2.41-.49-.97-1.48-1.84-.4-2.75.3-.32.23-.14.55-.11.38,0,.85-.29,1.27-.28.28-.08.59-.31.91-.35.08,0,.18.01.23-.06,1.04-.43,2.03-1.03,3.16-1.28.52-.18,1.05-.28,1.6-.35.38-.05.41-.6.1-.76-2.35-.97-3.33-4.23-6.15-4.16-.68.07-1.12-.82-1.44-1.3-.04-.11.82.02.89.02,1.24.04,1.8-.11,3.05.28.47.14.99.53,1.46.47.29-.04.72-.4.68-.71-.09-.09-.61.45-.65.14-.04-.26.45-.85.52-1.13-.47-.32-.72.93-1.1.9-1.21-.3-2.15-1.1-3.5-1.07-.11-.06.21-.18.26-.21.68-.48.14-2.07-.65-2.17-.37.19,0,.66-.32.9-.27.2-.79.01-1-.21-.34-.36,0-1.22-.19-1.7-.28-.74-1.21-.45-1.77-.64-.56-.19-.69-.83-1.33-.72-.33.08-.52.4-.52.71-.53.33-.4.39-.67.86-.31.24-1.03.11-.62.59.07.25-.35.52-.26.79.09.28.68.45.92.66.44.4.96,1.06,1.03,1.64l-.16.24s0,.01.01.02c-.33.17-.22.6-.32.86-1.89,1.36-4.45-.44-6.5.09-.23.12-.58.67-.7.21.2-.19.65-.22.6-.57-1.05.15-1.05.08-1.81.79-.54.08-1.1.05-1.64.09-.66.05-.9.27-1.55-.09-.47-.26-1.72-1.2-2.02-1.61-.26-.49-.64-1.05-1.24-1.14-.12,0-.06.2-.08.3-.14.56-.56,1.33-1.12,1.54.21-.63.91-1.05.91-1.78-.12-.71-.02-1.04.7-.55.71.15.66-.18.93-.6.13-.09.25.11.4-.03.16-.13.06-.54.12-.76.57-.83.65-1.58-.27-2.22-.84-.68-1.65-.79-2.41.06-1.07,1.13.92,2.42-1.86,2.41-.08.15-.03.32-.05.47-.26,1.49-1.45,2.79-2.38,3.94-.12.05-.41-.15-.37-.27.82-1.14,2.29-2.73,2.29-4.16-.04-.26-.64-.43-.88-.39-.21.04-.76.36-.98.48-1.14.61-2.28,1.21-3.43,1.79-.44.22-.68.16-.92.66-.38.99-.82,2-1.25,2.97-.05.57-.23.45-.71.4-.17,0-.34.12-.48.13-.15,0-.27-.12-.38-.08-.2.06.03.28.18.32.11.03.25,0,.36.05.03.34-.51.5-.8.5-.19,0-.39-.13-.57.04-.12.21.73.53.91.55,2.13-.19,3.49-2.16,4.32-3.87.27-.21,1.77-.98,2.08-.79-4.01,3.42-4.18,4.49.07,8,.25.2-.35.53-.48.71-.77.76-4.74,5.26-3.76,6.09-.09.35-.12.64.04.96.06.2-.06.34.29.39.2,0,1.48.1,1.54-.08-.22-.03-.41-.16-.62-.22-.38-.12-.51.02-.77-.39-.13-.2-.14-.27.14-.27.59-.05,2.29.91,2.01-.18.4-.21.31-.71.46-1.11.62-1.65,2.19-2.36,3.34-3.55.84,1.34,1.41,3.22,2.38,4.46.52.24.1.51.7,1.27.52-.02,1.25-.19,1.71-.4-.24-.17-.95-.06-1.22-.08-.1-.03-.49-.35-.35-.46.52-.25,1.52-.02,2.02-.23.41-.29-.09-.43-.26-.63-.36-.41-.78-1.47-1.08-2.01-.81-1.39-1.76-2.75-2.23-4.29-.56-1.28-1.86-2.72-2.72-3.81l.52-.76c1.18-.03.94-.68,1.57-1.33.2.73.57,1.66,1.5,1.67.06-.17-.14-.23-.16-.32,0-.47-.33-.87-.3-1.35l-.06-.12v-.06c-.13-.06.04-.05.14-.09.1-.04.46-.41.55-.44,1.67,1.75,5.18,2.72,7.34,1.17,1.69.44,2.47-.84,3.58-.67,1.67.34,1.99,1.04,3.94.64.44-.09,1.05-.2,1.39-.5.11.08.27.09.41.09h.01c.65-.08,1.51.08,2.03.48.51.48.84.63.24,1.22M113.58,15.96c.17-.04.19.36-.04.29-.12-.03-.06-.27.04-.29ZM113.47,17.17v-.2s.2,0,.2,0c.1.16-.02.3-.2.2ZM113.72,18.13c-.09.12-.42-.02-.24-.19.15-.15.32.1.24.19ZM114.06,18.39c.17-.04.2.2.08.24-.22.07-.25-.2-.08-.24ZM113.99,16.71c-.1-.16.02-.3.2-.2v.2s-.2,0-.2,0ZM114.14,15.75c-.16.04-.24-.18-.15-.25.16-.11.32.2.15.25ZM113.96,14.75c-.13-.17.18-.3.24-.21.1.16-.13.36-.24.21ZM133.28,13.55c.21-.05.16.27.04.28-.15.01-.22-.23-.04-.28ZM133.28,14.51c.17-.04.2.2.08.24-.22.07-.25-.2-.08-.24ZM132.17,14.69c-.04-.15.19-.23.26-.14.12.16-.21.3-.26.14ZM132.9,15.25c-.16.11-.32-.2-.15-.25.16-.04.24.18.15.25ZM132.76,14.29c-.17-.05-.02-.36.15-.25.09.06,0,.29-.15.25ZM133.43,15.71c-.04.06-.3.01-.26-.14.05-.16.37-.02.26.14ZM133.9,15.25c-.16.11-.32-.2-.15-.25.16-.04.24.18.15.25ZM133.91,14.27c-.19.13-.32-.18-.15-.23.19-.06.26.16.15.23ZM134.93,18.89c.12.16-.16.33-.24.21-.1-.15.13-.35.24-.21ZM134.22,20.55c-.14-.08,0-.35.21-.24.07.04.02.38-.21.24ZM133.93,21.94c-.11.21-.37-.03-.23-.16.12-.11.31.01.23.16ZM134.43,14.75s-.25,0-.26-.06c.09-.4.38-.05.26.06ZM133.72,22.74c.23-.07.32.14.15.23-.17.08-.31-.18-.15-.23ZM133.91,23.93c-.13.09-.35-.09-.21-.22.16-.16.34.13.21.22ZM134.42,23.44c-.08.08-.23.02-.24-.1-.02-.31.41-.06.24.1ZM134.21,22.24c.15-.09.28.12.21.24-.09.14-.39-.13-.21-.24ZM134.18,21.48c-.11-.15.11-.28.24-.21.15.09-.09.4-.24.21ZM134.93,23.91c-.11.15-.37-.07-.23-.2.15-.14.33.07.23.2ZM134.9,21.06c-.2.12-.33-.29-.1-.28.17,0,.16.24.1.28ZM134.9,22.02c-.2.12-.3-.24-.15-.29.18-.05.24.23.15.29ZM134.69,22.74c.06-.09.33,0,.23.16-.11.21-.33,0-.23-.16ZM134.69,20.06c-.12-.19.17-.33.25-.2.1.16-.19.3-.25.2ZM135.75,18.85c.25-.08.23.26.08.29-.12.02-.22-.24-.08-.29ZM135.47,18.45c.05.17-.24.23-.3.14-.12-.19.25-.29.3-.14ZM135.45,20.35c.09.13-.14.27-.24.21-.18-.12.11-.38.24-.21ZM135.25,19.33c.16-.08.29.2.17.27-.2.12-.36-.18-.17-.27ZM135.41,23.43c-.11.1-.22.02-.24-.1-.03-.29.43-.09.24.1ZM135.45,22.44c-.13.18-.41-.09-.24-.21.09-.06.33.08.24.21ZM135.18,21.48c-.15-.21.22-.25.28-.17.11.15-.18.3-.28.17ZM135.7,19.85c.11-.15.33.05.24.21-.06.09-.37-.03-.24-.21ZM135.9,21.75c.13.09,0,.37-.17.27-.1-.06-.04-.42.17-.27ZM135.73,20.77l.21.05v.21s-.21.04-.21.04c-.05-.1-.04-.18,0-.29ZM135.7,23.91c-.12-.16.16-.33.24-.21.1.15-.13.35-.24.21ZM135.69,22.87c-.01-.18.2-.21.25-.13.13.19-.23.39-.25.13ZM136.31,19.32c.17.01.18.22.1.27-.26.15-.33-.29-.1-.27ZM136.22,20.32c.12-.12.36.06.19.23-.11.12-.33-.1-.19-.23ZM136.31,23.47c-.24,0-.14-.41.1-.27.06.04.06.27-.1.27ZM136.22,22.47c-.15-.15.1-.3.2-.24.14.1-.05.38-.2.24ZM136.21,21.52c-.18-.11.1-.38.24-.21.11.15-.11.28-.24.21ZM136.75,18.85c.25-.08.23.26.08.29-.12.02-.22-.24-.08-.29ZM136.7,22.9c-.09-.17.17-.23.24-.16.1.11-.11.4-.24.16ZM136.88,21.06c-.17.05-.28-.24-.08-.29M136.87,22.02c-.17.05-.27-.24-.07-.29.18-.04.22.24.07.29ZM136.94,20.06c-.12.07-.34-.06-.25-.2.11-.17.4.12.25.2ZM137.27,19.31,137.42,22.24,137.27,21.27,137.8,21.74,137.8,20.78,137.68,19.85,138.27,22.24,138.27,21.28,138.2,20.31,138.79,20.78,138.79,21.74,139.27,21.28,139.79,21.74"/>
      <path d="M150.88,10.34c.1.06.44-.06.64.14.05.05.17.39.18.46.03.25-.06.55.03.85.06.21.33.36.34.56,0,.15-.13.22-.14.33,0,.14.1.33.07.55-.02.17-.17.26-.15.44.22-.03.31.17.49.24.31.12.82.15,1.16.29.08-.02.31-.52.3-.57,0-.06-.15-.12-.18-.22-.06-.18-.01-.52-.1-.72-.05-.11-.19-.07-.2-.21-.02-.21.13-.33.15-.48.01-.12-.07-.24-.06-.33.02-.16.09-.9.14-1,.23-.46,1.05-.78,1.57-.73.7.07,1.44,1.01,1.44,1.66,0,.61-.63.9.07,1.42.84.62,1.71.62,2.2,1.74.29.66.18,1.07.27,1.7.06.4.34.96.45,1.39.33,1.27.87,2.89.48,4.14-.19.59-.92,1.7-.98,2.23-.02.18.26.68.33.91.06.19.03.39.07.54.1.33,1.51.67,1.85.79.25.09.47.24.72.32.45.14,1.83.35,2.06.66.1.13.09.31.05.46-.09.33-1.09,2.29-1.32,2.52s-.65.49-.98.44c-.11-.39.32-.65.18-1.02-.09-.18-1.55-.61-1.88-.76-.79-.36-1.57-1.01-2.34-1.34-.08-.04-.14-.09-.25-.06-.07.06.35.96.4,1.14.15.5.5,1.96.44,2.41-.05.35-.22.42-.54.49-.74.17-2.45.52-3.14.42-.29-.04-.58-.33-.32-.57.32-.29,1.09-.29,1.24-.88l-.07-.15c-.34-.18-.67-.66-.74-1.02-.19-.99-.45-3.44-.29-4.38.13-.74.77-1.38,1.05-2.07l-.92.57c-.13.62-.38.83-.98,1.03-.01.32.04.67-.01.99-.08.5-.35,1.37-.51,1.88-.22.72-.87,1.96-.72,2.66.13.59.58.63,1,.93-.13.35-.73.39-1.05.34-.46-.08-1.05-1-1.02.27l-.21-.03-.06-.08c.05-.37-.12-.78-.08-1.13.03-.25.26-.56.35-.82.29-.85.17-1.67.38-2.54.1-.42.88-2-.12-1.81-.53.1-2.31,1.26-2.62,1.67-.16.21-.15.45-.31.65-.07.07-.13.03-.18-.04s-.26-.94-.25-1.05c.02-.34.34-.46.36-.78-.21-.05-.52.2-.56-.1.08-.1.2-.13.3-.18.52-.25.82-.25,1.34-.28.17-.01,1.75-1.06,1.77-1.16l-.06-.22c-.05-.06-.97-.15-1.14-.16-.29,0-.6.16-.88.04-.09-.04-.18-.2-.29-.27-.33-.2-.64-.33-.94-.58-.36-.3-.59-.72-1.03-.92.26-1.13,1.12-1.63,1.97-2.29.11-.09.16-.23.28-.34.17-.14.78-.37.83-.49.17-.98-.71-1.9-.82-2.77-.1-.77.12-1.76.2-2.53-.35.13-.92,0-.89-.43,0-.13.14-.26.12-.41-.02-.19-.31-.25-.29-.68.03-.47.71-1.41.96-1.85.09-.06.82-.25.9-.25.36,0,.43.42.47.44ZM154.87,18.27c-.28.11.17.9.32.88.16-.03.06-.16.03-.23-.1-.22-.31-.4-.34-.65Z"/>
      <path d="M46.46,10.73s.12.69.12.79c0,.29-.3,1.39.05,1.46.99-.3,1.07.75.91,1.46-.04.18-.22.29-.25.41s.1.24.03.41c-.07.15-.67.65-.83.82.51.91.94,1.64.77,2.73-.03.22-.52.95-.08.87.37-.06.73-.26,1.17-.15-.03.91-.66.69-1.33.76-.3.03-.02.32.02.55.36,1.75.74,1.9,1.42,3.37.27.58.45,1.26.67,1.86-.52.08-.93.51-1.41.78-.72.4-1.52.68-2.24,1.09-.06.51-.79,1.2-.86,1.62-.06.33.2.64.18.97l-.49-.19c-.18.7.41.97.95,1.31.07.04.85.27.53.44-.47.38-3.1-.66-3.12-.95.19-.45,1.21-1.72,1.01-2.13-.09-.19-.64-.54-.53-.89.09-.3.9-.22,1.14-.47.1-.1.13-.34.24-.48.23-.29.62-.62.67-.97.03-.18,0-.14-.15-.14-.36-.01-.23.21-.4.27-.26.09-1.94-.09-2.06-.27-.07-.1,0-.3-.06-.37-.05-.06-.51-.04-.56-.26.36-.9.24-1.92.39-2.83.11-.69.93-1.61,1.42-2.14.19-.21.82-.65.84-.81.04-.22-.11-.42-.1-.57,0-.15.2-.25.18-.36-.01-.09-.2-.16-.23-.25-.07-.18-.05-.38-.13-.54-.32-.63-.66-.55-.39-1.46s.33-1.88.78-2.75c.2-.39.57-.68.74-1.18.16-.47.13-.98.4-1.42-.14-.87-1.06-.02-1.2.47-.24.87.05,1.77-.58,2.67-.42.61-2.16,1.56-2.51,2.22-.08.14-.34.98-.33,1.11.04.33.46.25.65.42.36.32.14,1.42-.2,1.71-.13.11-.24.03-.25-.05,0-.23.85-1.02-.4-1.09l-.2,1.8h-.38c-.23.15.07,1.7.09,2.03.03.54-.07,1.17,0,1.7.07.46.62,1.19.56,1.6-.05.34-.58.93-.72,1.3-.37,1-.62,2.67-1.11,3.58-.14.27-.43.25-.61.45.3.61.93.67,1.57.62v.28c-1.01.4-1.86-.15-2.88.09-.48-.33-.17-.87-.12-1.32-.33-.26-.69-.22-1.04-.51-.25-.21-.28-.42-.45-.61s-.56-.24-.54-.61c.03-.52.79-.75,1.14-1,.16-.12.22-.33.35-.42.18-.13.41-.1.64-.33.09-.1.43-.72.44-.82.02-.21-.18-.31-.19-.46-.05-.93-.12-.81-.37-1.64-.37-1.21-.54-2.54.02-3.71.19-.4.63-.77.71-1.21.23-1.24-.32-1.95.34-3.37.28-.6.88-.65.96-.8.28-.59-.26-.63-.29-1.11-.15-1.81,2-1.41,2.22-.72.05.16.16.68.19.85.02.13-.25.36-.15.57.14.13,1.43-.62,1.61-.77.3-.26,1.33-2.4,1.4-2.83s-.25-.76.13-1.1c.53-.46.92.09,1.52.07.22.05.12.34.21.46.08.1.29.06.33.11Z"/>
      <path d="M66.83,13.94c-.08.18-.18.35-.24.54-.21-.3.15-.64.23-.89.14-.41-.01-1.16-.24-1.53-.42-.7-1.66-.3-1.87.42-.19.63-.05,1.09.32,1.61.06.08.26.19.25.36-.03.36-.37.29-.62.36-.33.09-.52.25-.66.55-.19.41-.3,1.3-.27,1.74.03.4.27.21.32.39.04.14-.13.53-.06.79.05.19.19.21.32.24.02.06.04.11.05.17.02.08.03.15.03.23-.05.01-.11.03-.17.07-.07.04-.35.28-.41.34-.31.29-.72.89-.76,1.31l-.12,1.03c-.1.51-.12,1.77,0,2.27.05.2.38.44.59.47.27.05.89-.06,1.07.05.03.02.5.49.52.53.06.11.26.62.25.72,0,.08-.04.13-.07.2-.15.31-.49.66-.68.96-.35.57-.46,1.12-.67,1.73-.1.3-.22.6-.33.9-.05.08-.19.03-.26.1-.08.08-.41.78-.42.9,0,.08-.01.56.02.6.16.03.33.19.49.22.13.02.16-.08.26-.07.1.02.38.37.51.43.21.11,1.19.38,1.4.36.24-.02.49-.18.47-.43-.02-.32-.49-.39-.7-.52-.33-.21-.62-.81-.78-1.15.44-.05,1.01.39,1.45.3.2-.04.25-.37.14-.48-.07-.06-.49-.13-.59-.27-.12-.31-.16-.65-.2-.99.06-.15.17-.3.26-.44.34-.52,1.23-1.57,1.29-2.18.01-.16-.09-.44.1-.48.24-.04.62,0,.88-.04.58-.07,1.29-.32,1.71-.69.52-.45.54-1.51.36-2.11-.19-.65-1.2-1.67-1.78-2.05-.46-.3-1.17-.44-.98-1.1.05-.16.14-.34.2-.54.21-.66.7-2.08.39-2.71-.05-.11-.21-.17-.21-.34,0-.2.28-.34.32-.54.04-.16-.07-.11-.1-.2-.07-.24.11-.52.17-.76.19-.8.33-1.66.21-2.48-.43-.35-.99-.6-1.51-.82-.7-.31-1.3-.49-1.98-.88-.35-.2-.43-.32-.87-.2-.2.05-.3.13-.43.28-.04.05-.04.13-.1.17-.2.13-.63.18-.8.44-.14.13-.5.91-.59.95-.02,0-.1.02-.1-.02.17-.76-.3-1.52-1.17-1.44-.34.03-.9.23-1.1.51-.14.2-.16.57-.12.81.03.23.07.24.08.54,0,.42.27.86.42,1.25-.11.17-.35.1-.49.17-.17.07-1.11,1.16-1.23,1.35-.12.19-.16.45-.24.63-.13.27-1.29.82-1.6.99-.56.3-1.11.64-1.69.91-.21.1-.65.17-.78.37-.17.27-.18.54,0,.81.35.06.37-.23.61-.38.06-.04.61-.33.65-.34.31-.08.86-.04,1.17-.1.46-.09.99-.49,1.43-.66l.1.02c.05.37.19.67.13,1.05-.02.18-.14.37-.19.55-.18.67-.33,1.34-.44,2.02-.86.62-1.35,1.55-1.86,2.45-.11.2-.27.39-.36.61-.15.36-.11.53,0,.9.38,1.25,1.02,2.54,1.59,3.73.02.04.02.09.04.14.19.05.94-.22,1.05-.15.19.12.05.53.03.68-.02.23,0,.54-.06.75-.08.34-.68.29-.7.71-.02.43,1.04.16,1.26.06.42-.2.44-.75.69-1.1.1-.07.19.06.24.04.11-.03.17-.21.32-.21l-.08.67c.02.17.27.43.31.59.07.3-.09.76.09,1.02,0,.01.16.2.17.21.02.02.08.01.1.04.11.09.14.17.31.2.47.08.65-.06.69-.51.02-.27-.05-.72-.14-.98-.1-.29-.12-.36-.19-.66-.03-.13-.19-.41-.19-.51,0-.08.16-.55.19-.7.21-1.11.67-2.63.61-3.72-.05-.94-.15-1.9-.2-2.84-.01-.21-.08-.62-.08-.77,0-.1.13-.21.15-.38.11-.95-.01-2.06.12-3.03.08-.58.36-.92.66-1.4.28-.44.91-1.18.96-1.69.02-.21-.06-.4-.19-.57-.18-.23-.38-.2-.6-.35-.33-.23-.15-.45,0-.76.04-.08.11-.1.15-.2.19-.48-.02-.82.43-1.3.02-.02,0-.07.04-.1.09-.08.56-.13.79-.27.2-.13.25-.33.38-.44.13-.1.18.02.32.04.86.16,1.92.54,2.54,1.17.04.04.22.24.23.27.13.22-.05,1.01-.18,1.24"/>
    </g>
    <g>
      <path d="M229.23,14.07c0,.33.34.46.5.65.46.54.34,2.3.19,2.99-.16.74-.57,1.04-.3,1.89.16.5.59.85.87,1.27.46.7,1.03,1.99,1.2,2.8.19.9,0,1.99-.33,2.85-.17.11-.58-.18-.76-.23-.23-.06-1.89-.19-2-.12-.2.38-.14.84-.24,1.27-.08.33-.52,1-.52,1.19-.02.62.59,1.32.64,1.9l.35.16.12.56c-.26.25-.66.22-.91.32s-.23.48-.76.56c-.21.03-.92.05-1.1.01-.05-.01-.05-.1-.11-.13-.77-.35-.39-.32-.18-.81.16-.37.55-1.66.58-2.04.03-.33-.17-.5-.48-.62-.28-.11-.26.05-.44.03s-.34-.19-.46-.32c-.53-.57-.86-1.41-1.32-2.07-.89-1.28-1.98-2.06-3-3.18-.21-.23-.32-.64-.64-.68-.36-.04-.45.05-.67.3-.32.37-.84,1.06-1.09,1.47-.1.16-.1.4-.22.54-.14.15-.48.17-.54.25-.08.11-.05.37-.17.57-.24.38-.99.91-1.31,1.33-.4.54-.69,1.09-1.2,1.57-.46.43-.52.19-.95.32-.1.03-.15.16-.24.18-.31.08-.83-.72-.7-1.01.13-.2.83-.13,1.06-.22.1-.04.09-.17.16-.19.04-.01.22.05.31,0-.17-.28-.63-.31-.63-.7.53-.57,1.4-3.03,2.11-3.23.15-.04.32.06.35.04.03-.02.24-.5.25-.54.22-.84.33-1.95.39-2.83.01-.16.14-.3.14-.48,0-.07-.09-.62-.11-.65-.02-.03-.45-.27-.5-.27-.31-.03-1.11,1.06-1.57,1.15-.66.13-1.25-.5-1.6-.95-.13-.17-.87-1.22-.88-1.33-.01-.11.14-.21.1-.3-.05-.11-.33-.24-.38-.39-.09-.29.27-1.11.69-1.11.57.8,1.02,1.72,1.71,2.42h.14c.12-.15.37-.31.44-.47.08-.19.02-.42.15-.58.21-.26.9-.64,1.16-.99.15-.2.01-.48.52-.39.12-.08-1.04-.88-1.09-.96-.2-.29-.02-1.22.17-1.53.36-.6.62-.38,1.24-.51.68.18,1.17,1.11,1.17,1.75,0,.18-.22.34-.14.57.7.14,1.41.08,2.13.03.21.05.25.27.39.38s.29.16.42.28c.48.46.27.88,1.21.74.5-.07.67-.42,1-.68.41.41.58.08.92.07.19,0,.42.12.64.14.46.03.94-.01,1.4-.01l.97-1.11c-.43-.04-.31-.42-.5-.67-.07-.09-.25-.15-.26-.22-.02-.09.11-.29.09-.45-.04-.43-.59-1.04-.32-1.45.07-.1.27-.06.35-.23s.12-.67.05-.84c-.05-.11-.3-.23-.35-.35,0-.02-.08-.39-.07-.41.09-.42.7-.06.82-.13l-.14-.34c.84.13.62.75.6,1.37.14.08.28.05.43.13.12.06,1.06.75,1.17.85.5.48.14.55.22.87.04.16.37.23.33.47-.04.27-.33.51-.63.46ZM223.85,22.46c0-.47.27-1.24.52-1.65.29-.47,1.14-.9,1.53-1.32.43-.46,1.02-1.53.81-2.15-.13-.37-.35-.23-.62-.29-.29-.07-1.56-.54-1.71-.51-.29.06-.38.52-.48.69-.15.26-1.12.69-1.44.73-.84.09-1.05-.17-1.66-.61-.03.31.21.55.32.82.29.73.38.76.76,1.39s.64,1.36,1.05,1.99c.09.14.73,1.11.92.92ZM225.83,26.62c-.04-.36-.02-1.27-.6-1.16-.27.05.05.3.09.39.14.33.03.63.51.77Z"/>
      <path d="M178.65,31.7c-.09-.31.08-.62.13-.93.1-.55.21-.82.33-1.32.15-.63.27-1.27.39-1.91-.94.34-.88-.77-.95-1.36-.07-.12-.25.09-.42.07-.41-.04-1.2-1.25-1.49-1.57l-1.29,3.94c-.22.98-.05,1.25.76,1.82.25.17.73.21.7.58-.16,0-.3.08-.46.07-.31,0-2.09-.29-2.36-.39-.71-.27-.11-.74.07-1.06.44-.78.44-2.96.75-4.05.02-.06.05-.16-.02-.16-.59.19-1.14.49-1.77.54-.29.03-.73-.05-.97.02-.32.09-.81,1.22-.95,1.54-.51,1.15-.97,2.19-.87,3.46.03.37.47,1.17-.25,1.18-.5,0-.58-.23-.85-.54-.13-.14-.3-.1-.32-.38-.02-.32.57-1.25.69-1.71.2-.82.12-1.82.39-2.62.13-.39.71-1.17.68-1.52,0-.05-.25-.42-.31-.58-.6-1.63-1.28-4.19.06-5.59.27-.28.82-.43.67-.94-.29-.05-.5-.11-.6-.4-.11-.31-.32-1.43-.31-1.75.02-.61.19-1.49.99-1.43.08-.04.19-.76.18-.86-.02-.16-.35-.13-.21-.74.04-.18.45-.95.56-1.16.17-.32.58-.49.94-.53.45-.05.4.28.58.36.14.07.31,0,.47.1.26.17.15,1,.26,1.32.05.15.31.26.33.36,0,.06-.12.19-.14.33-.02.18.08.47.06.54-.03.12-.32.12-.27.31.42.05.76-.08,1.12-.25s.77-.38.94-.73c.36-.74,1.06-1.54,1.04-2.4,0-.14-.11-.27-.12-.41-.01-.13-.08-.83-.07-.87.09-.27.51-.18.7-.01.4.34.23.86.28,1.33.85-.55,2.09.31,2.12,1.2,0,.21-.18.6,0,.74.03.02.67.33.71.34.71.18,1.23.15,1.91.61.54.37,1.72,2.17,1.77,2.8.06.84-.95,1.31-1.68,1.4-.05.05-.15.55-.15.64,0,.08.65,1.06.76,1.3,1.17,2.58,0,3.89-.94,6.16-.26.61-.44,1.25-.69,1.85-.32.76-.73,1.49-.99,2.28-.29.24-.78-.15-.92.17-.09.19.15.4.22.57.02.07-.14.23-.17.23h-1.03ZM176.33,19.35c-.3-.24-.33-1.21-.28-1.56s.79-2.36.98-2.67c.15-.24.61-.3.76-.57l-.31-.77c-.2-.05-.46.66-.57.81-.45.6-1.41.79-1.94,1.33.35.23.73.45.71.92-.26.07-.2-.13-.31-.21-.19-.14-.81.09-1.02.22.02.69-.61,1.44-.71,2.08-.06.37.12,1.23.33,1.54.27.39,1.37.85,1.81,1.21.48.39.74,1.04,1.27,1.36.15,0,.53-.55.61-.7.41-.75.33-1.4.6-2.08.17-.43.86-.92.02-1.1-.09.08.42.48.11.48l-.72-.54c-.3.26-1.01.51-1.35.24ZM182.24,16.46c-.06-.03-.2-.05-.2.01.09.17.15,1.19.32,1.19.34-.33.59-.39.25-.85-.02-.03-.35-.34-.37-.35ZM177.45,18.14h1.24c.11-.08.11-.08.08-.21-.04-.16-.41-.8-.57-.82l-.6.07-.14.95ZM180.35,22.43c-.08-.07-.56.28-.6.34-.04.06.01.2-.03.3-.14.37-.31.72-.42,1.1-.01.14.27.17.33.41.12.52-.28,1.09.12,1.52.08-.27,0-.56.05-.83.03-.2.23-.49.24-.64.02-.23-.08-.56-.04-.87.05-.43.37-.85.35-1.34Z"/>
      <path d="M17.32,10.34c.1.06.44-.06.64.14.05.05.17.39.18.46.03.25-.06.55.03.85.06.21.33.36.34.56,0,.15-.13.22-.14.33,0,.14.1.33.07.55-.02.17-.17.26-.15.44.22-.03.31.17.49.24.31.12.82.15,1.16.29.08-.02.31-.52.3-.57,0-.06-.15-.12-.18-.22-.06-.18-.01-.52-.1-.72-.05-.11-.19-.07-.2-.21-.02-.21.13-.33.15-.48.01-.12-.07-.24-.06-.33.02-.16.09-.9.14-1,.23-.46,1.05-.78,1.57-.73.7.07,1.44,1.01,1.44,1.66,0,.61-.63.9.07,1.42.84.62,1.71.62,2.2,1.74.29.66.18,1.07.27,1.7.06.4.34.96.45,1.39.33,1.27.87,2.89.48,4.14-.19.59-.92,1.7-.98,2.23-.02.18.26.68.33.91.06.19.03.39.07.54.1.33,1.51.67,1.85.79.25.09.47.24.72.32.45.14,1.83.35,2.06.66.1.13.09.31.05.46-.09.33-1.09,2.29-1.32,2.52s-.65.49-.98.44c-.11-.39.32-.65.18-1.02-.09-.18-1.55-.61-1.88-.76-.79-.36-1.57-1.01-2.34-1.34-.08-.04-.14-.09-.25-.06-.07.06.35.96.4,1.14.15.5.5,1.96.44,2.41-.05.35-.22.42-.54.49-.74.17-2.45.52-3.14.42-.29-.04-.58-.33-.32-.57.32-.29,1.09-.29,1.24-.88l-.07-.15c-.34-.18-.67-.66-.74-1.02-.19-.99-.45-3.44-.29-4.38.13-.74.77-1.38,1.05-2.07l-.92.57c-.13.62-.38.83-.98,1.03-.01.32.04.67-.01.99-.08.5-.35,1.37-.51,1.88-.22.72-.87,1.96-.72,2.66.13.59.58.63,1,.93-.13.35-.73.39-1.05.34-.46-.08-1.05-1-1.02.27l-.21-.03-.06-.08c.05-.37-.12-.78-.08-1.13.03-.25.26-.56.35-.82.29-.85.17-1.67.38-2.54.1-.42.88-2-.12-1.81-.53.1-2.31,1.26-2.62,1.67-.16.21-.15.45-.31.65-.07.07-.13.03-.18-.04s-.26-.94-.25-1.05c.02-.34.34-.46.36-.78-.21-.05-.52.2-.56-.1.08-.1.2-.13.3-.18.52-.25.82-.25,1.34-.28.17-.01,1.75-1.06,1.77-1.16l-.06-.22c-.05-.06-.97-.15-1.14-.16-.29,0-.6.16-.88.04-.09-.04-.18-.2-.29-.27-.33-.2-.64-.33-.94-.58-.36-.3-.59-.72-1.03-.92.26-1.13,1.12-1.63,1.97-2.29.11-.09.16-.23.28-.34.17-.14.78-.37.83-.49.17-.98-.71-1.9-.82-2.77-.1-.77.12-1.76.2-2.53-.35.13-.92,0-.89-.43,0-.13.14-.26.12-.41-.02-.19-.31-.25-.29-.68.03-.47.71-1.41.96-1.85.09-.06.82-.25.9-.25.36,0,.43.42.47.44ZM21.32,18.27c-.28.11.17.9.32.88.16-.03.06-.16.03-.23-.1-.22-.31-.4-.34-.65Z"/>
      <path d="M82.52,10.31c.06.05.3.36.32.43.04.24-.1.34-.12.5-.05.44-.07.89.12,1.31-.47.11-.44.76-.58.92-.26.28-.73-.24-1.02.41-.14.32,0,.42,0,.7.01.89.06,1.77.07,2.66.1.49,1.71.57,2.13.52.47-.06.75-.49,1.17-.49.51,0,.87.41,1.51.35.32-.03,2.52-.72,2.62-.9-.08-.25.03-.43.04-.66,0-.12-.08-.25-.07-.41.02-.5.5-1.44.43-1.82-.06-.34-.7-.19-.84-.46,0-.36.15-.67-.1-1,.68-.45.24-1.42.79-1.89.42.09.59-.34.84-.38.28-.05.84.12,1.05.31.09.09.69,1.29.74,1.45.04.14.08.28.07.43-.01.16-.18.35-.12.45.05.09.25.15.33.24.77.78,1.1,1.15,2.21,1.31.59.09,1.07.32,1.66.38.59-.26.74-1,1.52-.82.09.31.45.37.4.77l-.43.04c.16.21.58-.03.58.31-.23.08-.53.03-.74.09-.19.05-.47.33-.76.39-.45.08-1.74.06-2.23.02s-.97-.23-1.45-.35c-.15,0-.42.19-.46.33-.08.27-.02,1.84.06,2.14.05.18.25.45.37.62.18.26,1.19,1.45,1.4,1.58.3.19,1.05.3,1.46.48.64.27,1.67,1.06,1.62,1.79-.04.56-.31.56-.62.87-.45.45-.91,1.14-1.56,1.29-.83.2-.26-1.22-1.26-.46-.14-.02-.25-.41-.46-.47-.44-.13-.93.66-1.26-.07h-.1c-.09-.01-.13.04-.18.09-.12.1-.83,1.04-.88,1.17s-.15.92-.13,1.06.23.4.3.62c.24.76.2,1.72.52,2.5.14.33.9.78.92,1.2,0,.37-.39.49-.52.75-.18.4-.1.87-.53,1.24-.29.25-1.76.44-2.09.21-.41-.29.5-1.16.58-1.45.14-.5-.73-3.33-.91-4.05-.05-.19,0-.4-.03-.6-.05-.24-.3-.55-.34-.86-.05-.46.4-1.11.15-1.45-.03-.04-.72-.2-.87-.29-.18-.11-.32-.47-.48-.5-.11-.02-.43.08-.65.06-.36-.04-.76-.25-1.19-.14.01-.18.02-.34-.14-.45.08-.13.45-.15.49-.19.05-.04,0-.21.13-.26.18-.06.47.04.73-.06.14-.06.32-.29.46-.4.1-.08.29-.11.36-.21.16-.21,0-.4.01-.62.04-.63.56-1.19.99-1.63.39-.39.64-.26.72-.91.02-.13.01-.25,0-.38-.69.13-1.37.34-2.07.41-.36.04-.83-.05-1.15.01-.14.03-.88.43-1.07.5-.56.22-.87-.02-1.43-.02.09.61-.44.51-.9.49-.63-.03-1.39-.22-2.03-.21-.76,0-.73.97-.67,1.53.59.4,2.27,1.48,2.28,2.2,0,.51-.5,1.12-.88,1.44-.45.38-1.29.64-1.4,1.23-.08.41-.23.85-.29,1.18-.15.86-.01,2.28-.07,3.21-.02.27-.08.95-.29,1.12-.16.13-.39.04-.37.2.07.49,1.11.47,1.09,1.01-.07.1-1.07.08-1.26.06-.15-.01-.29-.11-.45-.13-.29-.04-.56.03-.86-.08-.62-.22-.11-.88-.04-1.29.09-.56-.11-1.14-.07-1.67.05-.61.38-1.37.43-2.09.02-.22,0-.44,0-.66-.31.23-.49.24-.87.14.03.5-.21.92-.15,1.43.06.44.69.89.04,1.13-.57-.32-1.06-.94-1.28-1.53s-.04-.47-.46-.95-.36-.98.24-1.24c.33-.14.61-.29.93-.43.3-.13,1.24-.32,1.26-.67s-.75-1.66-.88-2.09c-.36-.22-.74-.56-1.08-.77-.52-.32-.76-.05-.63-.96.22-1.54,1.59-3.83,2.36-5.26.4-.75.63-1.35,1.47-1.8.35-.19.89-.25,1.04-.67.21-.59-.38-1.05.11-1.78.58-.85,1.86-1.01,2.66-.36Z"/>
      <path d="M195.04,13.34c-.34.2-.98-.19-.89.43,0,.04.25.65.27.68.07.11.38.29.52.44.17.19.36.55.49.68s1.11.76,1.32.89c.42.25,2.72,1.27,3.11,1.32.29.04.57-.14.89.02.08,0,.28-1.29.31-1.46.06-.37-.07-.75.19-1.1.29-.39,1.33-.25,1.43-.44l-.25-.23c-.06-.11.14-.42-.03-.7-.04-.07-.2,0-.13-.2.47-.38.18-.95.27-1.43.07-.35.38-.24.56-.34.1-.05.21-.37.4-.43.24-.07.86.13,1.03.33.1.11.73,1.11.76,1.22.16.51-.16.56-.16.76,0,.15.2.27.13.52-.15.32-.45.26-.76.25-.09.57.42.53.76.71,1.16.62.81,1.59.23,2.5-.27.43-.97.92-.85,1.46.01.05.62.57.64.74l2.3,4.36c-.46.05-.74-.06-1-.43-.6-.09-1.32-.09-1.9-.18-.13-.02-.23-.17-.38-.13-.17.48-.52.88-.75,1.33-.11.23-.49,1.06-.5,1.26,0,.26.3,1.19.48,1.4.13.16.45.22.39.53-.04.25-.51.68-.66.92-.1.15-.08.34-.23.52-.21.25-.52.31-.83.22-.36-.24.82-1.32.56-1.79-.07,0-.13.08-.17.14-.28.42-.8,1.62-.78,2.11.02.56.75,1.63-.42,1.64-1.06,0-.13-1.49-.3-2.09.36-.58.26-1.27.35-1.88s.46-1.21.19-1.75c-.09-.19-.24-.27-.33-.42-.22-.35-.31-1.22-.41-1.69-.15-.72.01-1.28-.97-1.3-.52,0-.68.39-1.34.08-.3-.14-1.26-1.21-1.21-1.46.04-.16.42-.16.55-.21.94-.33,1.88-.7,2.82-1.04l.33-1.08c-.61-.31-1.14-.14-1.78-.07-.2.02-.42-.02-.62,0-.49.06-.72.44-1.33.34-.04-.5-.46-.52-.78-.74-.21-.15-.28-.44-.43-.53-.24-.14-1.1-.1-1.44-.16-.37-.07-.75-.28-1.13-.32l-.79,2.95v.72c.45,1,1.23,1.98,1.65,2.98.53,1.24-.36,2.38-.67,3.58-.19.73-.21,1.51-.33,2.25l.05.11c.75.11,1.7.69.41.92.17.26.56.11.79.3.28.23.04.54-.23.64-.64.24-1.35.09-2,.1-.48,0-1.09.25-1.5-.11.02-.25-.03-.54,0-.79.03-.2.22-.41.21-.54,0-.03-.3-.14-.27-.46.03-.37.44-.69.53-.98.2-.63.2-1.6.3-2.27.07-.44.28-.63.2-1.15-.05-.3-.18-.22-.31-.37-.46-.54-.64-1.26-1.02-1.85-.41-.62-1.05-1-1.35-1.73-.47-1.14.25-2.08.31-3.23-.26,0-.37.47-.63.17,0-.1.83-.7.92-.87.2-.42.16-1.24.25-1.71.18-.86.76-2.81,1.7-3.14.17-.06.37-.02.52-.11.04-.03.26-.42.28-.47.18-.59-.35-.87.09-1.66.6-1.07,1.96-1.25,2.66-.18.25.39.03.97,0,1.41,0,.15.08.28.07.4-.02.17-.51.55-.36.9Z"/>
      <path d="M131.65,23.14c-.39.43-.07.88.48.82.19.08.36.22.35.37-.3.64-.4,1.23-.39,1.93.18.38-.43,1-.63,1.35-.53.84-1.36,1.94-2.13,2.55-.2.06-1.52-.45-1.78-.57-.19-.09-.55-.4-.74-.36-.19.05-.15.14-.09.28.11.26.94,1.11,1.19,1.28.14.1.4.13.44.29.03.1-.06.16.04.29.03.04.54.45.57.46.12.04.53-.31.64-.37.34-.29.54-.9.85-1.26.46-.53,1.52-.96,1.97-1.58.18-.11.53-.89.74-.67,1.36,1.86,3.66,2.93.07,3.79-.22.47,1.88.46,2.11.36.33-.15.6-.48.94-.35.09-.09.72-.42.62-.62-.23-.62-.49-.79-1-1.09-.26-.22-.8-1.95-1.01-2.41-.49-.97-1.48-1.84-.4-2.75.3-.32.23-.14.55-.11.38,0,.85-.29,1.27-.28.28-.08.59-.31.91-.35.08,0,.18.01.23-.06,1.04-.43,2.03-1.03,3.16-1.28.52-.18,1.05-.28,1.6-.35.38-.05.41-.6.1-.76-2.35-.97-3.33-4.23-6.15-4.16-.68.07-1.12-.82-1.44-1.3-.04-.11.82.02.89.02,1.24.04,1.8-.11,3.05.28.47.14.99.53,1.46.47.29-.04.72-.4.68-.71-.09-.09-.61.45-.65.14-.04-.26.45-.85.52-1.13-.47-.32-.72.93-1.1.9-1.21-.3-2.15-1.1-3.5-1.07-.11-.06.21-.18.26-.21.68-.48.14-2.07-.65-2.17-.37.19,0,.66-.32.9-.27.2-.79.01-1-.21-.34-.36,0-1.22-.19-1.7-.28-.74-1.21-.45-1.77-.64-.56-.19-.69-.83-1.33-.72-.33.08-.52.4-.52.71-.53.33-.4.39-.67.86-.31.24-1.03.11-.62.59.07.25-.35.52-.26.79.09.28.68.45.92.66.44.4.96,1.06,1.03,1.64l-.16.24s0,.01.01.02c-.33.17-.22.6-.32.86-1.89,1.36-4.45-.44-6.5.09-.23.12-.58.67-.7.21.2-.19.65-.22.6-.57-1.05.15-1.05.08-1.81.79-.54.08-1.1.05-1.64.09-.66.05-.9.27-1.55-.09-.47-.26-1.72-1.2-2.02-1.61-.26-.49-.64-1.05-1.24-1.14-.12,0-.06.2-.08.3-.14.56-.56,1.33-1.12,1.54.21-.63.91-1.05.91-1.78-.12-.71-.02-1.04.7-.55.71.15.66-.18.93-.6.13-.09.25.11.4-.03.16-.13.06-.54.12-.76.57-.83.65-1.58-.27-2.22-.84-.68-1.65-.79-2.41.06-1.07,1.13.92,2.42-1.86,2.41-.08.15-.03.32-.05.47-.26,1.49-1.45,2.79-2.38,3.94-.12.05-.41-.15-.37-.27.82-1.14,2.29-2.73,2.29-4.16-.04-.26-.64-.43-.88-.39-.21.04-.76.36-.98.48-1.14.61-2.28,1.21-3.43,1.79-.44.22-.68.16-.92.66-.38.99-.82,2-1.25,2.97-.05.57-.23.45-.71.4-.17,0-.34.12-.48.13-.15,0-.27-.12-.38-.08-.2.06.03.28.18.32.11.03.25,0,.36.05.03.34-.51.5-.8.5-.19,0-.39-.13-.57.04-.12.21.73.53.91.55,2.13-.19,3.49-2.16,4.32-3.87.27-.21,1.77-.98,2.08-.79-4.01,3.42-4.18,4.49.07,8,.25.2-.35.53-.48.71-.77.76-4.74,5.26-3.76,6.09-.09.35-.12.64.04.96.06.2-.06.34.29.39.2,0,1.48.1,1.54-.08-.22-.03-.41-.16-.62-.22-.38-.12-.51.02-.77-.39-.13-.2-.14-.27.14-.27.59-.05,2.29.91,2.01-.18.4-.21.31-.71.46-1.11.62-1.65,2.19-2.36,3.34-3.55.84,1.34,1.41,3.22,2.38,4.46.52.24.1.51.7,1.27.52-.02,1.25-.19,1.71-.4-.24-.17-.95-.06-1.22-.08-.1-.03-.49-.35-.35-.46.52-.25,1.52-.02,2.02-.23.41-.29-.09-.43-.26-.63-.36-.41-.78-1.47-1.08-2.01-.81-1.39-1.76-2.75-2.23-4.29-.56-1.28-1.86-2.72-2.72-3.81l.52-.76c1.18-.03.94-.68,1.57-1.33.2.73.57,1.66,1.5,1.67.06-.17-.14-.23-.16-.32,0-.47-.33-.87-.3-1.35l-.06-.12v-.06c-.13-.06.04-.05.14-.09.1-.04.46-.41.55-.44,1.67,1.75,5.18,2.72,7.34,1.17,1.69.44,2.47-.84,3.58-.67,1.67.34,1.99,1.04,3.94.64.44-.09,1.05-.2,1.39-.5.11.08.27.09.41.09h.01c.65-.08,1.51.08,2.03.48.51.48.84.63.24,1.22M113.58,15.96c.17-.04.19.36-.04.29-.12-.03-.06-.27.04-.29ZM113.47,17.17v-.2s.2,0,.2,0c.1.16-.02.3-.2.2ZM113.72,18.13c-.09.12-.42-.02-.24-.19.15-.15.32.1.24.19ZM114.06,18.39c.17-.04.2.2.08.24-.22.07-.25-.2-.08-.24ZM113.99,16.71c-.1-.16.02-.3.2-.2v.2s-.2,0-.2,0ZM114.14,15.75c-.16.04-.24-.18-.15-.25.16-.11.32.2.15.25ZM113.96,14.75c-.13-.17.18-.3.24-.21.1.16-.13.36-.24.21ZM133.28,13.55c.21-.05.16.27.04.28-.15.01-.22-.23-.04-.28ZM133.28,14.51c.17-.04.2.2.08.24-.22.07-.25-.2-.08-.24ZM132.17,14.69c-.04-.15.19-.23.26-.14.12.16-.21.3-.26.14ZM132.9,15.25c-.16.11-.32-.2-.15-.25.16-.04.24.18.15.25ZM132.76,14.29c-.17-.05-.02-.36.15-.25.09.06,0,.29-.15.25ZM133.43,15.71c-.04.06-.3.01-.26-.14.05-.16.37-.02.26.14ZM133.9,15.25c-.16.11-.32-.2-.15-.25.16-.04.24.18.15.25ZM133.91,14.27c-.19.13-.32-.18-.15-.23.19-.06.26.16.15.23ZM134.93,18.89c.12.16-.16.33-.24.21-.1-.15.13-.35.24-.21ZM134.22,20.55c-.14-.08,0-.35.21-.24.07.04.02.38-.21.24ZM133.93,21.94c-.11.21-.37-.03-.23-.16.12-.11.31.01.23.16ZM134.43,14.75s-.25,0-.26-.06c.09-.4.38-.05.26.06ZM133.72,22.74c.23-.07.32.14.15.23-.17.08-.31-.18-.15-.23ZM133.91,23.93c-.13.09-.35-.09-.21-.22.16-.16.34.13.21.22ZM134.42,23.44c-.08.08-.23.02-.24-.1-.02-.31.41-.06.24.1ZM134.21,22.24c.15-.09.28.12.21.24-.09.14-.39-.13-.21-.24ZM134.18,21.48c-.11-.15.11-.28.24-.21.15.09-.09.4-.24.21ZM134.93,23.91c-.11.15-.37-.07-.23-.2.15-.14.33.07.23.2ZM134.9,21.06c-.2.12-.33-.29-.1-.28.17,0,.16.24.1.28ZM134.9,22.02c-.2.12-.3-.24-.15-.29.18-.05.24.23.15.29ZM134.69,22.74c.06-.09.33,0,.23.16-.11.21-.33,0-.23-.16ZM134.69,20.06c-.12-.19.17-.33.25-.2.1.16-.19.3-.25.2ZM135.75,18.85c.25-.08.23.26.08.29-.12.02-.22-.24-.08-.29ZM135.47,18.45c.05.17-.24.23-.3.14-.12-.19.25-.29.3-.14ZM135.45,20.35c.09.13-.14.27-.24.21-.18-.12.11-.38.24-.21ZM135.25,19.33c.16-.08.29.2.17.27-.2.12-.36-.18-.17-.27ZM135.41,23.43c-.11.1-.22.02-.24-.1-.03-.29.43-.09.24.1ZM135.45,22.44c-.13.18-.41-.09-.24-.21.09-.06.33.08.24.21ZM135.18,21.48c-.15-.21.22-.25.28-.17.11.15-.18.3-.28.17ZM135.7,19.85c.11-.15.33.05.24.21-.06.09-.37-.03-.24-.21ZM135.9,21.75c.13.09,0,.37-.17.27-.1-.06-.04-.42.17-.27ZM135.73,20.77l.21.05v.21s-.21.04-.21.04c-.05-.1-.04-.18,0-.29ZM135.7,23.91c-.12-.16.16-.33.24-.21.1.15-.13.35-.24.21ZM135.69,22.87c-.01-.18.2-.21.25-.13.13.19-.23.39-.25.13ZM136.31,19.32c.17.01.18.22.1.27-.26.15-.33-.29-.1-.27ZM136.22,20.32c.12-.12.36.06.19.23-.11.12-.33-.1-.19-.23ZM136.31,23.47c-.24,0-.14-.41.1-.27.06.04.06.27-.1.27ZM136.22,22.47c-.15-.15.1-.3.2-.24.14.1-.05.38-.2.24ZM136.21,21.52c-.18-.11.1-.38.24-.21.11.15-.11.28-.24.21ZM136.75,18.85c.25-.08.23.26.08.29-.12.02-.22-.24-.08-.29ZM136.7,22.9c-.09-.17.17-.23.24-.16.1.11-.11.4-.24.16ZM136.88,21.06c-.17.05-.28-.24-.08-.29M136.87,22.02c-.17.05-.27-.24-.07-.29.18-.04.22.24.07.29ZM136.94,20.06c-.12.07-.34-.06-.25-.2.11-.17.4.12.25.2ZM137.27,19.31,137.42,22.24,137.27,21.27,137.8,21.74,137.8,20.78,137.68,19.85,138.27,22.24,138.27,21.28,138.2,20.31,138.79,20.78,138.79,21.74,139.27,21.28,139.79,21.74"/>
      <path d="M150.88,10.34c.1.06.44-.06.64.14.05.05.17.39.18.46.03.25-.06.55.03.85.06.21.33.36.34.56,0,.15-.13.22-.14.33,0,.14.1.33.07.55-.02.17-.17.26-.15.44.22-.03.31.17.49.24.31.12.82.15,1.16.29.08-.02.31-.52.3-.57,0-.06-.15-.12-.18-.22-.06-.18-.01-.52-.1-.72-.05-.11-.19-.07-.2-.21-.02-.21.13-.33.15-.48.01-.12-.07-.24-.06-.33.02-.16.09-.9.14-1,.23-.46,1.05-.78,1.57-.73.7.07,1.44,1.01,1.44,1.66,0,.61-.63.9.07,1.42.84.62,1.71.62,2.2,1.74.29.66.18,1.07.27,1.7.06.4.34.96.45,1.39.33,1.27.87,2.89.48,4.14-.19.59-.92,1.7-.98,2.23-.02.18.26.68.33.91.06.19.03.39.07.54.1.33,1.51.67,1.85.79.25.09.47.24.72.32.45.14,1.83.35,2.06.66.1.13.09.31.05.46-.09.33-1.09,2.29-1.32,2.52s-.65.49-.98.44c-.11-.39.32-.65.18-1.02-.09-.18-1.55-.61-1.88-.76-.79-.36-1.57-1.01-2.34-1.34-.08-.04-.14-.09-.25-.06-.07.06.35.96.4,1.14.15.5.5,1.96.44,2.41-.05.35-.22.42-.54.49-.74.17-2.45.52-3.14.42-.29-.04-.58-.33-.32-.57.32-.29,1.09-.29,1.24-.88l-.07-.15c-.34-.18-.67-.66-.74-1.02-.19-.99-.45-3.44-.29-4.38.13-.74.77-1.38,1.05-2.07l-.92.57c-.13.62-.38.83-.98,1.03-.01.32.04.67-.01.99-.08.5-.35,1.37-.51,1.88-.22.72-.87,1.96-.72,2.66.13.59.58.63,1,.93-.13.35-.73.39-1.05.34-.46-.08-1.05-1-1.02.27l-.21-.03-.06-.08c.05-.37-.12-.78-.08-1.13.03-.25.26-.56.35-.82.29-.85.17-1.67.38-2.54.1-.42.88-2-.12-1.81-.53.1-2.31,1.26-2.62,1.67-.16.21-.15.45-.31.65-.07.07-.13.03-.18-.04s-.26-.94-.25-1.05c.02-.34.34-.46.36-.78-.21-.05-.52.2-.56-.1.08-.1.2-.13.3-.18.52-.25.82-.25,1.34-.28.17-.01,1.75-1.06,1.77-1.16l-.06-.22c-.05-.06-.97-.15-1.14-.16-.29,0-.6.16-.88.04-.09-.04-.18-.2-.29-.27-.33-.2-.64-.33-.94-.58-.36-.3-.59-.72-1.03-.92.26-1.13,1.12-1.63,1.97-2.29.11-.09.16-.23.28-.34.17-.14.78-.37.83-.49.17-.98-.71-1.9-.82-2.77-.1-.77.12-1.76.2-2.53-.35.13-.92,0-.89-.43,0-.13.14-.26.12-.41-.02-.19-.31-.25-.29-.68.03-.47.71-1.41.96-1.85.09-.06.82-.25.9-.25.36,0,.43.42.47.44ZM154.87,18.27c-.28.11.17.9.32.88.16-.03.06-.16.03-.23-.1-.22-.31-.4-.34-.65Z"/>
      <path d="M46.46,10.73s.12.69.12.79c0,.29-.3,1.39.05,1.46.99-.3,1.07.75.91,1.46-.04.18-.22.29-.25.41s.1.24.03.41c-.07.15-.67.65-.83.82.51.91.94,1.64.77,2.73-.03.22-.52.95-.08.87.37-.06.73-.26,1.17-.15-.03.91-.66.69-1.33.76-.3.03-.02.32.02.55.36,1.75.74,1.9,1.42,3.37.27.58.45,1.26.67,1.86-.52.08-.93.51-1.41.78-.72.4-1.52.68-2.24,1.09-.06.51-.79,1.2-.86,1.62-.06.33.2.64.18.97l-.49-.19c-.18.7.41.97.95,1.31.07.04.85.27.53.44-.47.38-3.1-.66-3.12-.95.19-.45,1.21-1.72,1.01-2.13-.09-.19-.64-.54-.53-.89.09-.3.9-.22,1.14-.47.1-.1.13-.34.24-.48.23-.29.62-.62.67-.97.03-.18,0-.14-.15-.14-.36-.01-.23.21-.4.27-.26.09-1.94-.09-2.06-.27-.07-.1,0-.3-.06-.37-.05-.06-.51-.04-.56-.26.36-.9.24-1.92.39-2.83.11-.69.93-1.61,1.42-2.14.19-.21.82-.65.84-.81.04-.22-.11-.42-.1-.57,0-.15.2-.25.18-.36-.01-.09-.2-.16-.23-.25-.07-.18-.05-.38-.13-.54-.32-.63-.66-.55-.39-1.46s.33-1.88.78-2.75c.2-.39.57-.68.74-1.18.16-.47.13-.98.4-1.42-.14-.87-1.06-.02-1.2.47-.24.87.05,1.77-.58,2.67-.42.61-2.16,1.56-2.51,2.22-.08.14-.34.98-.33,1.11.04.33.46.25.65.42.36.32.14,1.42-.2,1.71-.13.11-.24.03-.25-.05,0-.23.85-1.02-.4-1.09l-.2,1.8h-.38c-.23.15.07,1.7.09,2.03.03.54-.07,1.17,0,1.7.07.46.62,1.19.56,1.6-.05.34-.58.93-.72,1.3-.37,1-.62,2.67-1.11,3.58-.14.27-.43.25-.61.45.3.61.93.67,1.57.62v.28c-1.01.4-1.86-.15-2.88.09-.48-.33-.17-.87-.12-1.32-.33-.26-.69-.22-1.04-.51-.25-.21-.28-.42-.45-.61s-.56-.24-.54-.61c.03-.52.79-.75,1.14-1,.16-.12.22-.33.35-.42.18-.13.41-.1.64-.33.09-.1.43-.72.44-.82.02-.21-.18-.31-.19-.46-.05-.93-.12-.81-.37-1.64-.37-1.21-.54-2.54.02-3.71.19-.4.63-.77.71-1.21.23-1.24-.32-1.95.34-3.37.28-.6.88-.65.96-.8.28-.59-.26-.63-.29-1.11-.15-1.81,2-1.41,2.22-.72.05.16.16.68.19.85.02.13-.25.36-.15.57.14.13,1.43-.62,1.61-.77.3-.26,1.33-2.4,1.4-2.83s-.25-.76.13-1.1c.53-.46.92.09,1.52.07.22.05.12.34.21.46.08.1.29.06.33.11Z"/>
      <path d="M66.83,13.94c-.08.18-.18.35-.24.54-.21-.3.15-.64.23-.89.14-.41-.01-1.16-.24-1.53-.42-.7-1.66-.3-1.87.42-.19.63-.05,1.09.32,1.61.06.08.26.19.25.36-.03.36-.37.29-.62.36-.33.09-.52.25-.66.55-.19.41-.3,1.3-.27,1.74.03.4.27.21.32.39.04.14-.13.53-.06.79.05.19.19.21.32.24.02.06.04.11.05.17.02.08.03.15.03.23-.05.01-.11.03-.17.07-.07.04-.35.28-.41.34-.31.29-.72.89-.76,1.31l-.12,1.03c-.1.51-.12,1.77,0,2.27.05.2.38.44.59.47.27.05.89-.06,1.07.05.03.02.5.49.52.53.06.11.26.62.25.72,0,.08-.04.13-.07.2-.15.31-.49.66-.68.96-.35.57-.46,1.12-.67,1.73-.1.3-.22.6-.33.9-.05.08-.19.03-.26.1-.08.08-.41.78-.42.9,0,.08-.01.56.02.6.16.03.33.19.49.22.13.02.16-.08.26-.07.1.02.38.37.51.43.21.11,1.19.38,1.4.36.24-.02.49-.18.47-.43-.02-.32-.49-.39-.7-.52-.33-.21-.62-.81-.78-1.15.44-.05,1.01.39,1.45.3.2-.04.25-.37.14-.48-.07-.06-.49-.13-.59-.27-.12-.31-.16-.65-.2-.99.06-.15.17-.3.26-.44.34-.52,1.23-1.57,1.29-2.18.01-.16-.09-.44.1-.48.24-.04.62,0,.88-.04.58-.07,1.29-.32,1.71-.69.52-.45.54-1.51.36-2.11-.19-.65-1.2-1.67-1.78-2.05-.46-.3-1.17-.44-.98-1.1.05-.16.14-.34.2-.54.21-.66.7-2.08.39-2.71-.05-.11-.21-.17-.21-.34,0-.2.28-.34.32-.54.04-.16-.07-.11-.1-.2-.07-.24.11-.52.17-.76.19-.8.33-1.66.21-2.48-.43-.35-.99-.6-1.51-.82-.7-.31-1.3-.49-1.98-.88-.35-.2-.43-.32-.87-.2-.2.05-.3.13-.43.28-.04.05-.04.13-.1.17-.2.13-.63.18-.8.44-.14.13-.5.91-.59.95-.02,0-.1.02-.1-.02.17-.76-.3-1.52-1.17-1.44-.34.03-.9.23-1.1.51-.14.2-.16.57-.12.81.03.23.07.24.08.54,0,.42.27.86.42,1.25-.11.17-.35.1-.49.17-.17.07-1.11,1.16-1.23,1.35-.12.19-.16.45-.24.63-.13.27-1.29.82-1.6.99-.56.3-1.11.64-1.69.91-.21.1-.65.17-.78.37-.17.27-.18.54,0,.81.35.06.37-.23.61-.38.06-.04.61-.33.65-.34.31-.08.86-.04,1.17-.1.46-.09.99-.49,1.43-.66l.1.02c.05.37.19.67.13,1.05-.02.18-.14.37-.19.55-.18.67-.33,1.34-.44,2.02-.86.62-1.35,1.55-1.86,2.45-.11.2-.27.39-.36.61-.15.36-.11.53,0,.9.38,1.25,1.02,2.54,1.59,3.73.02.04.02.09.04.14.19.05.94-.22,1.05-.15.19.12.05.53.03.68-.02.23,0,.54-.06.75-.08.34-.68.29-.7.71-.02.43,1.04.16,1.26.06.42-.2.44-.75.69-1.1.1-.07.19.06.24.04.11-.03.17-.21.32-.21l-.08.67c.02.17.27.43.31.59.07.3-.09.76.09,1.02,0,.01.16.2.17.21.02.02.08.01.1.04.11.09.14.17.31.2.47.08.65-.06.69-.51.02-.27-.05-.72-.14-.98-.1-.29-.12-.36-.19-.66-.03-.13-.19-.41-.19-.51,0-.08.16-.55.19-.7.21-1.11.67-2.63.61-3.72-.05-.94-.15-1.9-.2-2.84-.01-.21-.08-.62-.08-.77,0-.1.13-.21.15-.38.11-.95-.01-2.06.12-3.03.08-.58.36-.92.66-1.4.28-.44.91-1.18.96-1.69.02-.21-.06-.4-.19-.57-.18-.23-.38-.2-.6-.35-.33-.23-.15-.45,0-.76.04-.08.11-.1.15-.2.19-.48-.02-.82.43-1.3.02-.02,0-.07.04-.1.09-.08.56-.13.79-.27.2-.13.25-.33.38-.44.13-.1.18.02.32.04.86.16,1.92.54,2.54,1.17.04.04.22.24.23.27.13.22-.05,1.01-.18,1.24"/>
    </g>
  </g>
</svg>
