<?xml version="1.0" encoding="UTF-8"?>
<svg xmlns="http://www.w3.org/2000/svg" xmlns:xlink="http://www.w3.org/1999/xlink" xmlns:i="http://ns.adobe.com/AdobeIllustrator/10.0/" version="1.1" viewBox="0 0 85.6 53.98">
  <!-- Generator: Adobe Illustrator 29.2.1, SVG Export Plug-In . SVG Version: 2.1.0 Build 116)  -->
  <defs>
    <style>
      .st0 {
        fill: #2f4a9f;
      }

      .st1 {
        fill: none;
        stroke: #2f4a9f;
        stroke-width: 1;
      }

      .st2 {
        fill-rule: evenodd;
      }

      .st3 {
        stroke: #ed2224;
        stroke-linecap: round;
        stroke-linejoin: round;
      }

      .st3, .st4 {
        fill: none;
      }

      .st3 {
        stroke-width: 1.5px;
      }

      .st4 {
        stroke-width: .2px;
      }

      .st4 {
        stroke: #231f20;
      }

      .st4 {
        stroke-miterlimit: 10;
      }
    </style>
  </defs>
  <g id="Card_outline">
    <rect class="st4" x="0" y="0" width="85.6" height="53.98" rx="3" ry="3"/>
  </g>
  <g id="Frame_blue">
    <rect class="st1"
          x="2" y="2"
          width="81.6" height="49.98"
          rx="2" ry="2"/>
  </g>
  <g id="logo" transform="translate(1.58 1) scale(0.3462)">
    <g>
      <g>
        <path class="st0" d="M145.69,38.6v-6.51h3.27v1.53h-1.51v.95h1.35v1.47h-1.35v1h1.51v1.56h-3.27Z"/>
        <path class="st0" d="M149.71,38.6v-6.51h1.52c.87,0,1.54.23,2.03.7.64.61.95,1.46.95,2.56s-.27,1.91-.8,2.5c-.46.5-1.14.75-2.05.75h-1.65ZM151.47,37.03c.63-.03.95-.57.95-1.63,0-.52-.08-.93-.24-1.23-.16-.3-.38-.46-.65-.46h-.05v3.31Z"/>
        <path class="st0" d="M156.72,38.6h-1.76v-6.51h1.76v6.51Z"/>
        <path class="st0" d="M157.63,38.6v-6.51h1.68l.88,2.29c.05.13.1.29.16.46s.13.38.2.6l.18.57c-.06-.56-.11-1.05-.15-1.45-.03-.4-.05-.74-.05-1.01v-1.46h1.68v6.51h-1.68l-.89-2.4c-.09-.26-.18-.5-.25-.72-.07-.22-.14-.44-.2-.64.04.46.06.86.08,1.2.02.34.03.64.03.89v1.66h-1.68Z"/>
        <path class="st0" d="M163.12,38.6v-6.51h2.05c.76,0,1.33.17,1.7.51.37.35.56.79.56,1.34,0,.82-.41,1.26-1.21,1.32.46.07.8.22,1.01.46.21.24.32.58.32,1.02,0,.56-.18,1.01-.54,1.35-.36.34-.83.51-1.42.51h-2.46ZM164.88,34.62h.12c.21,0,.38-.05.5-.15.12-.1.18-.24.18-.41,0-.38-.21-.57-.62-.57-.02,0-.04,0-.07,0-.03,0-.07,0-.11,0v1.12ZM164.88,37.19s.06,0,.09,0c.03,0,.05,0,.06,0,.22,0,.39-.06.52-.17.13-.12.2-.27.2-.46s-.07-.35-.2-.46c-.13-.11-.31-.16-.54-.16h-.14v1.25Z"/>
        <path class="st0" d="M170.96,32.09h1.76v4.61c0,.39-.06.7-.18.94-.12.25-.31.48-.59.68-.37.27-.82.4-1.35.4-.6,0-1.11-.15-1.51-.45-.52-.38-.78-.99-.78-1.82v-4.36h1.76v4.2c0,.28.04.48.1.6.07.12.18.18.35.18s.29-.06.35-.16c.06-.12.1-.32.1-.61v-4.2Z"/>
        <path class="st0" d="M178.26,38.6h-1.9l-.87-2.32s-.02-.09-.04-.16c-.02-.06-.05-.14-.08-.23v.43s.01,2.28.01,2.28h-1.75v-6.51h1.8c.79,0,1.39.16,1.78.47.5.4.75.97.75,1.7,0,.79-.34,1.33-1.01,1.63l1.31,2.71ZM175.39,35.1h.12c.2,0,.37-.08.51-.23.14-.15.2-.35.2-.59,0-.49-.25-.73-.76-.73h-.06v1.55Z"/>
        <path class="st0" d="M181.01,34.83h2.45v.27c0,1.25-.19,2.16-.56,2.71-.41.6-1.01.9-1.81.9s-1.4-.29-1.85-.89c-.44-.6-.67-1.41-.67-2.45s.22-1.89.67-2.49c.45-.61,1.06-.91,1.83-.91,1.03,0,1.78.54,2.24,1.61l-1.7.62c-.03-.21-.08-.37-.17-.49-.09-.12-.21-.18-.34-.18-.48,0-.73.67-.73,2,0,.56.05.98.16,1.23.11.26.28.38.51.38.09,0,.18-.02.25-.07.08-.04.14-.11.19-.19s.09-.18.12-.3.04-.25.04-.39h-.65v-1.37Z"/>
        <path class="st0" d="M188.57,38.6h-1.76v-2.62h-.84v2.62h-1.76v-6.51h1.76v2.3h.84v-2.3h1.76v6.51Z"/>
      </g>
      <g>
        <path class="st0" d="M159.64,75.87v-2.05c.35.47.72.71,1.12.71.15,0,.28-.04.37-.12s.14-.18.14-.3c0-.17-.1-.34-.31-.51l-.29-.22c-.19-.14-.35-.29-.49-.43-.13-.14-.24-.29-.33-.44-.08-.15-.15-.31-.19-.47-.04-.16-.06-.33-.06-.51,0-.3.07-.62.21-.95.07-.15.15-.3.24-.42s.2-.24.32-.34c.33-.28.73-.42,1.2-.42.42,0,.84.11,1.27.33v1.99c-.14-.22-.31-.4-.49-.52s-.36-.19-.54-.19c-.13,0-.25.04-.33.12-.09.08-.13.17-.13.27,0,.17.12.35.36.52l.28.21c.37.27.64.54.8.82.16.28.25.61.25.99,0,.64-.2,1.17-.59,1.59-.39.42-.88.62-1.48.62-.41,0-.86-.09-1.33-.27Z"/>
        <path class="st0" d="M168.51,72.79c0,.99-.23,1.8-.68,2.42-.45.62-1.04.93-1.76.93-.64,0-1.19-.24-1.65-.71-.58-.6-.86-1.5-.86-2.71s.3-2.03.9-2.64c.45-.45.98-.68,1.59-.68.75,0,1.35.31,1.79.92.44.61.67,1.44.67,2.48ZM166.69,72.81c0-1.18-.21-1.77-.62-1.77-.21,0-.37.15-.5.46-.12.29-.18.71-.18,1.27s.06.97.17,1.28c.11.3.27.45.47.45s.37-.15.48-.45c.12-.3.18-.71.18-1.24Z"/>
        <path class="st0" d="M172.93,74.02l-.1,1.88c-.39.16-.74.24-1.05.24-.73,0-1.34-.27-1.84-.8-.56-.6-.83-1.45-.83-2.54,0-1.03.26-1.85.78-2.47.52-.62,1.22-.93,2.1-.93.28,0,.57.05.87.16v1.86c-.26-.26-.53-.39-.81-.39-.36,0-.64.15-.84.46-.2.31-.3.74-.3,1.28,0,.26.03.5.08.71.05.21.12.38.22.53.09.14.21.25.35.33.14.08.29.11.47.11.3,0,.61-.14.92-.42Z"/>
        <path class="st0" d="M175.37,76.03h-1.76v-6.51h1.76v6.51Z"/>
        <path class="st0" d="M176.28,76.03v-6.51h3.27v1.53h-1.51v.95h1.35v1.47h-1.35v1h1.51v1.56h-3.27Z"/>
        <path class="st0" d="M182.58,76.03h-1.76v-4.95h-.97v-1.56h3.74v1.56h-1.01v4.95Z"/>
        <path class="st0" d="M187.25,76.03h-1.76v-2.76l-1.62-3.75h1.83l.32.97c.06.19.12.37.17.54s.09.34.13.5c.06-.24.12-.44.17-.62s.09-.31.13-.42l.32-.97h1.82l-1.51,3.75v2.76Z"/>
      </g>
      <g>
        <path class="st0" d="M146.48,67.09v-11.31h2.64c1.51,0,2.68.41,3.52,1.22,1.1,1.06,1.66,2.54,1.66,4.45s-.47,3.32-1.4,4.34c-.8.87-1.98,1.3-3.56,1.3h-2.86ZM149.53,64.36c1.09-.05,1.64-1,1.64-2.83,0-.9-.14-1.62-.42-2.14-.28-.53-.66-.79-1.13-.79h-.09v5.76Z"/>
        <path class="st0" d="M163.68,67.09h-3.16l-.23-1.44h-2.06l-.25,1.44h-3.16l2.72-11.31h3.74l2.4,11.31ZM159.94,63.23l-.2-1.32s-.01-.07-.03-.2c-.01-.11-.06-.53-.15-1.27,0-.08-.02-.2-.04-.34s-.04-.33-.06-.55l-.1-1.07c0,.1-.02.22-.04.34-.02.13-.04.27-.05.42-.04.3-.06.51-.07.63-.01.12-.02.19-.03.21l-.21,1.37-.31,1.77h1.29Z"/>
        <path class="st0" d="M164.79,67.09v-11.31h2.92l1.53,3.97c.08.23.18.5.28.81.1.3.22.65.35,1.05l.32,1c-.11-.98-.2-1.82-.26-2.52s-.09-1.28-.09-1.76v-2.54h2.92v11.31h-2.92l-1.54-4.16c-.16-.44-.31-.86-.44-1.25-.13-.39-.24-.76-.34-1.11.06.8.11,1.49.14,2.08s.04,1.11.04,1.55v2.89h-2.92Z"/>
        <path class="st0" d="M181.02,63.61l-.18,3.27c-.68.27-1.29.41-1.82.41-1.26,0-2.33-.46-3.19-1.39-.97-1.04-1.45-2.51-1.45-4.42,0-1.78.45-3.21,1.36-4.29.91-1.07,2.12-1.61,3.64-1.61.49,0,1,.09,1.51.28v3.23c-.45-.45-.92-.68-1.4-.68-.62,0-1.11.27-1.46.8-.35.54-.53,1.28-.53,2.23,0,.46.04.87.13,1.23s.21.67.38.92c.16.25.37.44.6.57s.51.2.82.2c.53,0,1.06-.24,1.59-.73Z"/>
        <path class="st0" d="M182.44,67.09v-11.31h5.68v2.66h-2.62v1.65h2.35v2.56h-2.35v1.73h2.62v2.72h-5.68Z"/>
      </g>
      <path class="st0" d="M145.79,50.45v-3.55c.6.82,1.25,1.23,1.95,1.23.26,0,.48-.07.64-.21s.25-.31.25-.52c0-.3-.18-.6-.54-.89l-.5-.39c-.33-.25-.62-.5-.85-.74-.23-.25-.42-.5-.57-.76s-.25-.53-.32-.81c-.07-.28-.1-.57-.1-.88,0-.53.12-1.08.37-1.66.12-.27.26-.51.42-.74.16-.22.35-.42.56-.59.58-.49,1.27-.73,2.09-.73.73,0,1.46.19,2.2.58v3.46c-.25-.39-.53-.69-.85-.91-.32-.22-.63-.33-.94-.33-.23,0-.43.07-.58.21-.16.13-.23.29-.23.48,0,.3.21.6.62.9l.48.36c.64.46,1.11.94,1.38,1.43.28.49.42,1.06.42,1.71,0,1.11-.34,2.03-1.02,2.75-.68.72-1.54,1.08-2.58,1.08-.72,0-1.49-.16-2.31-.48Z"/>
      <path class="st0" d="M162.7,54.21h-2.94l-.7-3.96c-.14-.77-.24-1.43-.31-1.99-.03-.28-.06-.51-.09-.7s-.04-.33-.05-.42c-.02.2-.06.57-.11,1.12-.02.28-.05.57-.09.88s-.08.63-.12.97l-.58,4.1h-2.97l-2.52-11.31h3.02l.5,3.11c.19,1.24.32,2.21.4,2.92l.1,1.03.1-.89c.1-1.04.23-2.02.4-2.95l.57-3.23h2.63l.51,2.72c.24,1.27.46,2.76.64,4.49.05-.78.11-1.46.18-2.07.06-.6.13-1.15.21-1.63l.56-3.51h2.98l-2.29,11.31Z"/>
      <path class="st0" d="M169.61,51.48h-3.05v-11.31h3.05v11.31Z"/>
      <path class="st0" d="M171.1,54.06v-11.31h2.92l1.53,3.97c.08.23.18.5.28.81.1.3.22.65.35,1.05l.32,1c-.11-.98-.2-1.82-.26-2.52s-.09-1.28-.09-1.76v-2.54h2.92v11.31h-2.92l-1.54-4.16c-.16-.44-.31-.86-.44-1.25-.13-.39-.24-.76-.34-1.11.06.8.11,1.49.14,2.08s.04,1.11.04,1.55v2.89h-2.92Z"/>
      <path class="st0" d="M184.51,44.33h4.26v.47c0,2.18-.33,3.75-.97,4.7-.71,1.04-1.76,1.57-3.14,1.57s-2.43-.51-3.21-1.54c-.77-1.04-1.16-2.46-1.16-4.26s.39-3.27,1.16-4.33,1.84-1.58,3.19-1.58c1.79,0,3.08.93,3.89,2.8l-2.96,1.08c-.04-.36-.15-.64-.3-.85-.16-.21-.36-.31-.6-.31-.84,0-1.26,1.16-1.26,3.46,0,.98.09,1.69.28,2.14.19.44.48.67.89.67.16,0,.31-.04.44-.12.13-.08.24-.19.33-.33.09-.14.16-.31.21-.52.05-.2.08-.43.08-.68h-1.13v-2.38Z"/>
      <path class="st2" d="M220.82,115.26c.18.08.29,0,.57.02.03.18.27.2.29.37.01.12-.11.15-.06.29-.01.06-.04.1-.08.12.01.08.01.05.02.14-.22.39-.36.87-.7,1.15-.09.38-.39.56-.49.92-.62.64-1.08,1.44-1.76,2.03-.13.29-.38.47-.61.65-.07.09-.12.21-.27.23-.1.21-.32.31-.47.47-.58-.07-1.14-.14-1.76,0-.32-.06-.58,0-.9.02.02.36.09.55.04.92-.16.03-.27.1-.33.23-.26.05-.35.27-.59.33-.03.02-.03.08-.06.1-.27.07-.37.32-.65.37-.09.18-.26.19-.47.12-.42-.39-1.05-.59-1.47-.98-.1,0-.21.01-.2-.1-.61-.24-1.01-.7-1.45-1.1-.02-.24-.25-.28-.27-.53-.09-.1-.12-.25-.16-.39.14-.11.22-.28.47-.29.4-.38,1.02-.54,1.23-1.1.21-.13.31-.37.41-.61h.06c.12-.26.26-.52.39-.78-.01-.2.12-.25.12-.43.32.02.4.05.68,0,0,.03.02.04.02.06.31-.1.56.06.84-.06.05-.01.03.04.06.04.3-.1.71-.08.92-.27.07,0,.13,0,.14.04.47-.14.94-.27,1.35-.47.24-.03.55-.14.74-.29.13.02.26-.01.33-.1.34,0,.48-.2.8-.23.02-.02.04-.04.06-.06.19.03.26-.07.43-.06.21-.21.76-.11.98-.35.23.03.52-.05.68-.16.21.09.45-.08.65-.12.01,0,.03.04.06.04.16-.01.36-.06.43-.16ZM215.24,117.59c-.17.14-.54.08-.68.25-.41-.06-.79.12-1.17.23-.09-.13-.29.06-.41-.06-.02.09-.17.05-.22.1-.19-.1-.44.03-.61-.04-.25.49-.36.94-.63,1.35,0,.05.07.04.06.1.1,0,.22.01.27-.04.27.15.62.1.94.12.03,0,.07-.04.1-.04.02,0,.04.06.06.06.04,0,.13-.05.18-.04.31.03.69.06.96.04.52-.68,1.01-1.39,1.49-2.11-.15-.02-.23.2-.35.08Z"/>
      <path class="st2" d="M203.74,126.9v.12c.31.44.37,1.09.43,1.74-.14.27.02.62-.14.88.04.64-.16,1.13-.08,1.86-.17.28-.57.36-.92.41-.07.09-.24.19-.37.12-.04.02-.04.07-.06.1-.36,0-.56.23-.92.27-.16-.13-.29-.3-.51-.37-.02-.02-.02-.07-.02-.12-.07,0-.08-.03-.14,0-.04,0,0,.07-.02.1-.1.05-.16.14-.27.18-.21.41-.58.64-.78,1.06-.13.03-.18.13-.18.29h-.08c-.12.2-.14.5-.51.45-.09.06-.25.05-.29.16-.05,0-.06-.06-.12-.06-.06,0-.1.03-.14.06-.19-.06-.38.05-.53.02-.32.13-.92.05-1.23.18-.22-.07-.42.05-.68-.02-.04.08-.2.03-.25.1-.02-.06-.22-.14-.27-.04-.14-.11-.51.02-.63-.04-.2.17-.65-.13-.92.04-.51-.16-1.46-.03-1.96-.37h-.12c-.09,0-.08-.11-.2-.08-.02-.23-.07-.27-.06-.57.21-.15.33-.39.59-.49.28-.39.74-.6,1.02-.98h.1c.12-.17.32-.25.43-.43.23-.08.41-.23.59-.39.21-.18.54-.34.72-.59.34-.13.63-.32.88-.55.07,0,.11,0,.16-.02.1-.15.29-.2.39-.35h.12c.09-.2.39-.2.47-.41h.12c.16-.16.33-.31.53-.43v-.1c.23-.11.47-.27.53-.49.38-.3.62-.75.88-1.17.53.04.89.31,1.45.22.02.02.04.04.06.06.5-.02.96.07,1.39-.1.05-.01.03.04.06.04.18-.08.36-.2.57-.2.03-.05.08-.09.12-.12h.12c.13-.08.28-.21.49-.14.05.06.07.15.16.16ZM199.47,128.57c-.11.02-.2.06-.23.16.33.64.88,1.22.88,2,.05.01.06.06.08.1-.02.02-.02.07-.02.12.14,0,.2-.06.31-.08.01-.04-.02-.12.02-.12h.12c.28-.25.59-.48.82-.78.05,0,.06-.07.14-.04.1-.18-.02-.35-.18-.39-.04-.21-.24-.34-.39-.51-.02-.02,0-.06-.02-.08-.02-.03-.1-.03-.12-.06-.04-.05-.04-.13-.08-.18-.02-.03-.08-.04-.1-.06-.08-.08-.08-.15-.12-.23-.07-.13-.36-.38-.45-.43,0-.01,0-.02-.02-.02-.21.2-.56.32-.63.59Z"/>
      <g>
        <path class="st2" d="M215.81,127.69s.01-.04.04-.04c.16.03.18.18.39.16.06.18.33.14.37.33h.12c-.01.16.17.11.14.29-.13.27-.36.44-.47.74-.24.14-.3.47-.53.61,0,.09-.07.1-.06.2-.23.12-.27.44-.49.57.02.09-.06.08-.04.16-.06.02-.11.04-.14.08-.27-.19-.62-.3-.8-.57-.05,0-.06-.04-.12-.02-.23-.3-.49-.57-.65-.94-.02-.24-.13-.55.06-.7,0-.05-.04-.06-.02-.12.19-.24.26-.6.53-.76,0-.05.04-.06.02-.12.27-.12.56-.12.82-.14.26.11.68.06.84.27Z"/>
        <path class="st2" d="M217.8,128.88c-.02.09.08.06.08.12.27.05.42.2.65.29h.14c.28.3.76.4,1.04.7.03,0,.02-.06.08-.04.08.19.29.24.47.33,0,.08.08.09.1.16.36.14.52.49.86.65-.05.05.06.08.06.14.05,0,.04.04.1.02.41.6.92,1.11.98,2.07,0,.06.05.07.06.12-.04.45.02.91-.2,1.31.03.39-.37.49-.53.76h-.1s-.04.07-.06.1c-.29-.01-.47.17-.68.2-.18.03-.36-.08-.55.02-.06-.07-.18-.06-.31-.06-.09-.05-.18-.1-.33-.1-.07-.09-.24-.09-.29-.2-.38-.05-.46-.4-.78-.51v-.1h-.14c.01-.07-.01-.11-.04-.14-.27-.23-.54-.47-.76-.76-.12-.12-.28-.21-.35-.39-.14-.12-.31-.22-.37-.43-.38-.19-.46-.67-.8-.9,0-.05,0-.12-.02-.14-.15-.18-.31-.35-.47-.51.05-.19.11-.35.25-.45.12-.36.41-.56.55-.9.05,0,.06-.03.1-.04-.03-.15.17-.23.18-.41h.08c.17-.33.42-.66.68-.96.09.06.15.09.29.06Z"/>
      </g>
      <g>
        <path class="st2" d="M209.9,125.98s.06.04.04.1c.46.19.59.72.8,1.17.04.45.24.78.12,1.17-.17-.03-.32,0-.41.1-.13-.08-.2.02-.35-.04-.49.19-1.16.18-1.7.33-.16-.11-.29.11-.47.04-.18-.3-.17-.83-.23-1.15.08-.05,0-.2.02-.33,0-.02.06-.06.06-.08,0-.11-.02-.09.02-.2.09-.23.12-.47.23-.68.04-.08.12-.13.16-.16.11-.09.19-.25.41-.23.08,0,.08-.07.12-.1.11.16.29-.02.43-.02.04,0,.08.06.12.06.18,0,.37-.03.61.02Z"/>
        <path class="st2" d="M212.42,136.16h-.12c-.05.2-.34.15-.41.33-.04-.06-.19,0-.23.06-.05,0-.02-.08-.08-.06-.05.02-.08.06-.16.04-.24-.14-.53-.03-.7-.2-.37-.03-.47-.24-.78-.29-.17-.13-.28-.32-.49-.41-.21-.26-.39-.53-.61-.78-.05-.44-.37-.69-.39-1.13-.12-.2-.18-.57-.18-.82-.16-.28-.08-.75-.2-.94.08-.2-.07-.5.02-.63-.07-.12-.09-.38-.08-.55,0-.37.04-.78.06-1.17.04-.02.06-.05.08-.08.48-.07,1.05-.13,1.58-.25.21.08.58-.15.78-.04.23-.08.54-.13.8-.12.05.04.05.14.12.16,0,.39.32.62.45.96.01.04.04.07.08.08-.02.08,0,.14.08.16.01.15.07.26.16.33.08.26.16.56.29.86.02.05.08.09.1.14,0,.01-.03.04-.02.06.06.13.1.22.14.35.16.49.39,1.05.49,1.51.08.36.1.97-.04,1.33-.03.07-.1.1-.12.16-.1.23-.1.37-.27.55-.02.03-.06.02-.08.04-.06.07-.11.19-.23.2-.01.04-.05.06-.04.12Z"/>
      </g>
      <g>
        <path class="st2" d="M172.85,11.99c.13-.15.33.03.41.12.06.65-.03,1.16-.08,1.72-.02.06.03.05.04.08-.05.25,0,.5-.06.78.09.44-.04,1.05.04,1.45.15.15.4.21.61.1.09-.09.1-.29.04-.41.17-.05.13-.23.16-.37.03-.12.11-.23.16-.37.08-.22.05-.49.18-.65,0-.08-.03-.08,0-.14.19-.13.11-.39.2-.61,0-.02.07-.04.08-.06.11-.21.16-.48.2-.76.13-.06.18-.23.16-.37.03-.14.2-.15.25-.29.47-.11,1.21-.34,1.35.08.03.03.1.02.12.06-.01.06,0,.08-.02.1.02.04.07.04.1.06.16.28-.01.66-.02.94-.29.45-.47,1.01-.78,1.45-.05.05.04.04.02.12-.22.07-.21.39-.41.53-.02.07.03.08.02.14-.08-.02-.06.06-.12.06-.11.16-.14.48-.37.63-.05.03,0,.09-.02.16-.04.19-.29.51-.2.78.05.15.21.13.37.16.06-.06.11-.13.2-.16.01-.06.03-.11.04-.16.23-.17.24-.57.47-.74,0-.07,0-.13.04-.16,0-.04.03-.04.06-.04-.01-.1.03-.13.04-.2h.08c.06-.26.19-.33.25-.57.24-.22.25-.62.53-.76.02-.12.09-.16.18-.22.11-.07.13-.19.25-.25.11-.05.24-.2.39-.29.17-.1.42-.24.7-.27.06.08.16.11.31.1.02.03.02.05,0,.08.28.11.25.6.29.9-.03.02-.04.06-.08.06,0,.09-.04.19-.08.27-.24.39-.56.71-.84,1.08v.1c-.16.13-.3.28-.37.49-.31.28-.47.7-.78.98-.04.13-.1.24-.23.29-.16.36-.4.56-.61.9.02.05.08.06.1.1.17-.02.39.01.43-.18.05,0,.06.04.1,0,.29-.24.55-.51.9-.7.02-.04.03-.07.04-.12.16.03.2,0,.27-.08.18.03.43-.02.61.04.13.04.19.13.33.16.04.16.1.3.16.45-.05.26.02.45-.1.7-.06.11-.17.16-.16.33-.09.06-.18.12-.18.27-.05,0-.04.04-.1.02-.12.18-.3.3-.43.47-.22.12-.43.24-.57.43-.3.14-.47.41-.78.53-.12.16-.3.26-.49.35-.02.02-.03.05-.02.1-.1,0-.11.08-.2.08-.04.02-.04.07-.06.1-.4.16-.56.56-.88.8-.07.13-.14.27-.29.33-.03.05-.03.12-.06.16-.09.01.02-.04-.04-.04-.03,0-.03.06,0,.06-.13.07-.24.15-.29.31-.31.16-.52.42-.76.65-.2.03-.35.12-.55.16.01-.02.02-.04,0-.04-.33.12-.83-.05-1.08.12-.55-.18-1.23-.02-1.64-.29h-.27c-.14-.15-.37-.26-.53-.33-.48-.56-.45-1.35-.68-2.07-.03-.22,0-.48-.08-.65.08-.41-.15-1.01-.06-1.47-.09-.72-.09-1.21-.16-1.9.04-.16,0-.24-.06-.37.04-.29.03-.55-.02-.76.02-.38.04-.83-.06-1.23.06-.31.16-.62.14-.96.08-.04.13-.16.1-.25.21-.06.51-.2.86-.18.51.21.82.7.8,1.33.11.1.03.25.06.37.02.11.2.3.33.47.05.07.15.23.18.27.03.03.1.01.12.04.14.16.18.38.37.45.09.01.04-.11.14-.08.14-.38-.03-.8.08-1.15-.11-.47-.02-1-.1-1.55.08-.38.01-.9.08-1.25.02-.06-.03-.05-.04-.08.08-.1.05-.22.02-.35.03-.05.1-.05.08-.14.02-.04.1-.02.14-.06.02-.02,0-.07.02-.1.05-.06.52-.4.7-.39.08,0,.18.12.29.16ZM169.07,14.9c-.09.36-.06.61.02.94-.09.34.1.73,0,1.1.13.12.04.26.06.41,0,.07.06.14.06.2.01.1-.03.22-.02.33.02.34.09.68.12,1.02,0,.05-.04.1-.04.14,0,.15.09.3.08.45-.02.32.07.45.02.76.12.23.14.48.27.61.12-.05.19-.17.31-.22.01-.04-.06-.09,0-.1.05,0,.06-.07.14-.04.11-.42-.14-.74-.06-1.15-.15-.32-.13-.52-.16-.94-.09-.1-.08-.2-.08-.33,0-.08-.05-.16-.06-.23,0-.04.02-.09.02-.12-.05-.37-.14-.74-.2-1.13-.1-.57-.15-1.15-.22-1.74-.09-.05-.16,0-.25.02Z"/>
        <path class="st2" d="M113.28,27.72c.44.05.54.39.88.57.08.18.17.34.33.43-.01.03.02.11-.02.1.33.31.48.85.76,1.15.02.07.05.13.06.2,0,.03.05.02.08.02,0,.05,0,.08-.02.1.1.16.14.34.2.49.07.17.16.25.2.41.02.07.07.06.12.14.05.08.07.22.12.29.04.06.14.07.18.12-.02.06.03.05.02.1.06.08.2.09.25.18.12-.04.2,0,.35-.02.05,0,.03-.08.08-.08-.06-.62-.25-1.28-.33-1.94-.05-.39.07-.86.04-1.27.12-.16.32-.23.47-.37h.16c.16-.08.46-.12.51,0h.47c.14.1.3.17.43.29,0,.11.05.18.1.25.09.59.29,1.01.45,1.68.08.1,0,.21.12.27-.03.25.15.44.16.7,0,.15.15.41.22.55-.02.02-.03.05-.02.1.14.45.33.91.45,1.45.1.14.22.37.23.59.23.28.36.66.53,1,.1.11.22.28.2.39.01.04.05.05.1.06,0,.18.09.29.2.37.22.63.62,1.13.8,1.76-.03.06-.06.12-.08.18.01.08.13.05.16.1-.09.35-.14.74-.31,1.1v.18c-.14.33-.27.68-.59.82-.04,0,0,.09-.04.1-.17.03-.28.12-.35.25-.1.01-.18.06-.18.16-.44.16-.7.49-1.13.65-.19.21-.59.22-.76.45-.19-.06-.46.06-.65.08-.08.02-.04-.08-.1-.08h-.16s-.1-.04-.12-.08c-.16,0-.29-.02-.35-.12-.6-.14-.98-.49-1.55-.65-.19-.17-.42-.2-.65-.37h-.14c-.03-.09-.17-.07-.2-.16-.35.02-.58-.27-.88-.16-.05,0-.03-.08-.08-.08-.37.04-.7-.06-.98.12-.03,0-.02-.06-.08-.04-.2.12-.68.05-.9.2-.36-.04-.55.07-.92.06-.04,0-.09,0-.08.06-.33-.06-.75.05-1.02-.06-.32-.09-.63-.17-.98-.23-.21-.1-.47-.15-.74-.2.02-.08-.1-.02-.08-.1-.29-.02-.41-.22-.59-.35-.02-.19-.17-.25-.27-.37-.02-.06.03-.05.02-.1-.03-.08-.08-.15-.12-.23.06-.22,0-.38.04-.57.19-.71.87-1.07,1.53-1.35.28-.05.38,0,.59-.06.05.11.17.05.29.06.51.23,1.1.21,1.66.33.08.02.07-.07.16-.04.14.08.49.08.61-.02-.14-.2-.45-.28-.74-.31-.44-.05-.93-.02-1.29-.16-.08-.02-.06.05-.12.04-.18-.18-.42-.1-.63-.2-.13-.01-.32.04-.35-.08-.33-.03-.72-.09-1.02-.25-.24.04-.28-.13-.49-.12-.05,0-.02-.02-.02-.04-.41.04-.51-.29-.82-.29-.04-.04-.06-.1-.08-.16-.1,0-.16-.05-.22-.08,0-.12-.02-.19-.14-.22-.09-.34-.16-.58-.16-.94,0-.18.11-.33.1-.49.18-.21.44-.33.7-.47.04.02.08.03.12.04.13-.03.23-.16.35-.08.06-.02.1-.06.16-.08.26.1.56-.06.78.1.44-.03.83.15,1.23.22.06,0,.02.04.06.1.16-.02.21.18.35.1.29.21.56.43.98.51.02.08.12.07.14.14h.2c.05.11.19.27.33.16,0,.1.14.08.16.16.26-.08.74.33.88-.08-.03-.11-.19-.19-.16-.29-.69-.29-1.2-.76-1.92-1.02-.01-.04-.05-.06-.04-.12-.26-.01-.29-.25-.57-.25-.03-.07-.05-.12-.1-.2h-.12c-.09-.1-.12-.27-.33-.27-.28-.29-.64-.49-.92-.78-.04-.04-.04.01-.1,0-.18-.24-.42-.41-.55-.7-.07-.31-.04-.52-.02-.76.12-.03.13-.17.18-.27.07-.04.14-.08.14-.18.18-.09.41-.23.53-.31.3-.06.7-.17,1.08-.08.02,0,0,.06.02.06.07.03.14-.02.2,0,.13.03.22.17.35.12.18.18.44.28.65.43.08.1.15.21.31.22.06.08.08.2.22.2.02.04.03.09.06.12.17.03.24.17.33.29.3.05.32.38.61.45.11.09.13.28.33.29.04.24.38.29.39.49.32.14.39.52.68.7.01.04.05.06.04.12.22.09.38.33.68.29.07-.09.01-.26.1-.37-.12-.39-.4-.64-.68-.88-.06-.21-.26-.35-.39-.53-.17-.23-.42-.37-.53-.61-.02-.02-.05-.03-.1-.02-.19-.41-.62-.61-.84-1.02-.06.01-.06-.04-.12-.02-.1-.13-.07-.27-.25-.33-.05-.19-.12-.37-.22-.51,0-.05.04-.07.06-.1-.09-.12,0-.23-.02-.41.26-.26.46-.57.8-.76.04,0,.01-.07.04-.08.3-.07.46-.09.78-.14.1,0,.06.09.08.12ZM119.3,34.08c-.07-.35-.29-.6-.39-.98-.05-.01-.07-.05-.1-.08-.13-.46-.34-1.33-.33-1.94-.02-.04-.05-.06-.06-.1.14-.32-.1-.5.02-.8-.15-.45.1-.98-.35-1.1-.07-.02-.11.02-.2-.02-.08.47,0,.95-.04,1.49.14.57-.18,1.36.27,1.72.02.06-.03.05-.02.1.05,0,.08.01.1.04.01.18.21.21.2.45.4.35.53.84.9,1.23ZM110.07,30.42c-.22-.16-.59-.2-.84-.2-.04.06.07.12.18.1,0,.18.22.15.27.29.32.04.35.36.7.37.14.15.27.32.55.33,0,.07.1.11.06.16.17-.04.12.14.27.12-.3-.35-.43-.66-.74-.98-.07-.02-.06.03-.1.04-.03-.15-.19-.26-.35-.22Z"/>
        <path class="st2" d="M148.92,95.78c-.12-.08-.43.13-.53-.04-.04,0-.12-.03-.1.04-.18-.27-.39-.39-.43-.72-.02-.17.08-.36.12-.55.03-.15.06-.36.08-.53.04-.27.09-.49-.18-.53-.15.37-.38.64-.53,1-.01.06.04.06.02.12-.02.02-.05.03-.1.02-.29.59-.56,1-.8,1.64-.3.24-.29.79-.63.98v.1c-.25.13-.65.25-1,.14-.41-.48-.22-1.12-.04-1.72.15-.08.15-.31.31-.39-.01-.24.24-.21.25-.43.26-.19.36-.54.59-.76.02-.06-.03-.05-.02-.1.21-.2.4-.43.43-.76-.12-.16-.34-.12-.49-.02-.04,0,0,.09-.04.1-.39.27-.64.7-.88,1.13-.36.41-.61.93-1,1.31v.08c-.13.05-.17.2-.31.25,0,.05-.04.06-.02.12-.2.03-.29.19-.49.23-.28-.04-.65-.04-.82-.29.03-.24-.15-.38-.2-.59.06-.1.02-.19.04-.33.15-.22.39-.36.51-.61.17.03.2-.18.33-.33.07-.08.17-.13.23-.2.09-.13.19-.21.25-.33h.1c.31-.37.76-.56,1.02-1.02h.12c.03-.1-.03-.16-.04-.27-.09-.04-.18-.16-.29-.16-.11,0-.22.1-.39.14-.08.02-.09.09-.16.12-.03.01-.1,0-.12,0-.16.05-.28.19-.39.25-.04.02-.07-.01-.1,0-.11.04-.16.18-.25.2-.24.06-.53.14-.63.37-.11-.07-.12.06-.25.04-.12.19-.42.2-.55.41-.2,0-.33.07-.55.04,0-.05-.04-.05-.08-.06-.03-.22-.25-.24-.31-.43.05-.28,0-.71.25-.9.06-.05.24-.07.37-.16.07-.05.12-.05.2-.12.14-.11.44-.22.59-.31.14-.08.24-.22.41-.18.04-.03.07-.07.08-.12.68-.2,1.25-.51,1.82-.82,0-.18-.17-.22-.41-.2-.07-.08-.28-.12-.37-.02-.02-.03-.02-.08-.04-.1-.25.05-.43-.1-.63-.06-.06.01-.1.08-.16.1-.19.08-.43.1-.68.12-.14.01-.27.08-.43.06-.4-.11-.6-.41-.68-.84.11-.3.32-.49.61-.61.12-.22.51-.17.61-.41.11,0,.14-.06.27-.04.07-.1.22-.11.33-.12.04-.07.14-.08.16-.16.05-.01.03.04.06.04.55-.23,1.08-.53,1.74-.7.04,0,.02-.08.06-.08.43-.14.79-.35,1.25-.45.02-.06.1-.06.12-.12.37-.06.59-.27.94-.35.05,0,.04.04.1.02.42-.18.88-.3,1.37-.33.15-.14.41.08.68.06.22.2.5.33.63.61.18.11.27.31.39.49.02.03.05.04.1.04.05.33.27.4.33.7.13.09.12.31.25.41,0,.1,0,.2.1.2.05.48-.06.97-.27,1.35,0,.05.04.04.02.1-.07,0-.12.16-.04.18-.17.41-.44.81-.51,1.25-.02.13,0,.29-.04.43-.08.31-.17.78-.16,1.1-.14.35-.13.83-.25,1.21-.11.23-.23.45-.33.7-.18.11-.33.26-.51.37Z"/>
        <path class="st2" d="M191.43,18.66c-.32.29-.38.85-.72,1.13-.05.32-.08.81.25,1,.11-.03.24-.05.27-.16.08.02.08-.04.14-.04.11-.32.44-.53.45-.88.1-.13.24-.35.27-.49.11-.1.21-.19.25-.41.13-.02.16-.15.16-.25.23-.15.35-.4.49-.63.04,0,.04-.06.1-.04.08-.29.38-.36.41-.7.15-.04.23-.14.27-.29.41-.34.82-.66,1.41-.82.05,0,.08.01.1.04.11-.09.33.02.45-.02.05.11.16.07.25.1.22.08.33.23.51.33.05.16.08.21.14.35,0,.86-.64,1.09-.94,1.66-.15.11-.27.25-.35.43-.18.18-.35.36-.51.55h-.08c.01.06-.04.06-.02.12-.28.18-.5.41-.7.68-.15.07-.26.19-.33.35-.11,0-.13.08-.22.08-.12.23-.43.31-.43.59.02.19.14.27.35.31.31-.03.44-.24.7-.33.04-.02.03-.09.06-.12.21-.1.44-.18.53-.41.21-.01.22-.21.41-.25.33-.44.8-.72,1.23-1.06.28-.04.48-.16.7-.27.21-.02.41-.07.53-.18.11.09.34,0,.49-.04.17.08.38.03.57.06.17.17.43.19.45.47.03.02.06.05.08.08.06.31.08.66-.02.94-.3.28-.51.67-.96.8-.05.16-.31.11-.33.31-.27.02-.4.19-.63.25-.04,0-.05.04-.04.08-.2.02-.32.12-.45.2-.34.07-.71.39-1.06.45-.21.16-.5.12-.65.33-.28.04-.68.21-.88.37-.1.08.02.23.12.25.16.03.4-.07.53-.12.05,0,.12,0,.14.02.28-.16.67-.22.92-.41.05,0,.08,0,.1.02.33-.24.75-.42,1.15-.49-.06.06.05.04.1.04,0-.01-.05-.03-.06-.02.15-.12.56.04.7-.02.05.09.29.16.49.16.01.13.28.1.25.2.33.08.38.4.55.67,0,.42-.13.74-.35,1.08-.25.12-.43.31-.7.41-.19.2-.53.25-.72.45-.09,0-.15.01-.2.04-.23.23-.67.25-1,.37-.14-.07-.39.01-.51.08-.07.03-.02-.07-.08-.04-.45.09-.94.08-1.29.16-.09-.05-.22-.03-.29.04-.06.02-.05-.03-.08-.04-.22.07-.54.05-.68.2-.14-.02-.2.03-.23.12-.45.05-.65.45-.98.55-.06.02-.07.08-.08.14-.36.16-.65.48-1,.74-.07.05-.15.13-.23.18-.1.08-.22.15-.31.22-.29.26-.73.56-1.27.55-.09-.07-.25-.07-.41-.06-.06-.04-.29-.12-.41-.04-.1-.07-.2-.14-.39-.12,0-.02.02-.02.02-.04-.21-.02-.36-.12-.59-.12-.24-.13-.58-.25-.8-.33-.11-.15-.52-.08-.59-.37h-.1c-.06-.06-.06-.17-.1-.25-.04-.06-.12-.09-.16-.16-.06-.09-.08-.22-.14-.31-.04-.06-.11-.06-.12-.1-.08-.2-.26-.51-.27-.59,0-.08.02-.48.1-.47,0-.32.13-.71.14-1.04.13-.19.09-.42.25-.63-.05-.36.21-.81.16-1.06.13-.24.21-.59.14-.9,0-.04.03-.04.06-.04.02-.34,0-.7.08-1,0-.07-.08-.07-.08-.14.07-.19.1-.44.1-.63,0-.24-.04-.49-.04-.76.02-.2.09-.42.02-.63.06-.34.06-.71.02-.96,0-.07.08-.22,0-.25.05-.13.05-.2.04-.37.08-.2.31-.25.43-.41.14.03.17-.07.31-.04.19-.15.68-.19.84,0,.06.02.02-.07.1-.04,0,.1.08.12.06.25.11.23.24.48.27.76.02.02.04.03.06.04.04.19,0,.39.04.59,0,.04.06.08.06.12,0,.05-.04.1-.04.16,0,.09.08.26.08.37,0,.05.02.13.02.18,0,.11-.07.24-.04.35.06.23.37.19.61.16.2-.11.27-.36.41-.53.12-.5.19-.89.27-1.33.03-.17.07-.39.12-.53.01-.04,0-.04.06-.06.08-.66.27-.87.43-1.45.16-.17.3-.35.41-.57.31-.1.56-.37.82-.16.25-.07.36.12.55.1-.03.1.09.04.08.12.43.07.58.46.51.86-.06.1-.14.28-.12.43-.04.02-.06.05-.1.06.01.08-.04.1-.02.18-.2.25-.41.59-.49.84-.15.2-.18.4-.37.57-.01.06.04.06.02.12ZM193.68,18.23c.43-.53,1.03-1.03,1.47-1.62-.6.12-.99.44-1.27.88.02.15-.04.2-.14.29.08.07-.21.32-.06.45ZM186.5,17.74c-.02.09-.06.15-.12.18,0,.29.2.68.18,1.04.04.03.07.06.1.1-.08.13.01.19.06.29-.08.26.1.55.14.86.07.48.02,1-.02,1.47-.11.03-.05.2-.06.29-.09.12-.09.32-.1.53.13-.22.24-.56.27-.82.03-.02.04-.06.08-.06.07-.42.29-.79.33-1.17.06.01.04-.04.08-.04.01-.06-.07-.05-.02-.1.04-.03.06-.07.06-.12-.06-.4-.29-.83-.29-1.19-.15-.21-.11-.55-.31-.82.05-.17-.07-.3-.08-.51-.15-.07-.14.09-.31.06Z"/>
      </g>
      <g>
        <path class="st3" d="M191.41,111.14s2.84.91,5.46-1.82"/>
        <path class="st3" d="M178.57,102.28s9.77,1.93,18.07-4.55"/>
        <path class="st3" d="M163.57,92.39s15.46,2.95,32.05-7.39"/>
        <path class="st3" d="M155.39,76.94s-13.98,4.32-1.7,11.93"/>
        <path class="st3" d="M191.53,64.78s7.84,0,7.16,4.43"/>
        <path class="st3" d="M133,60.23s-7.73,7.39,9.43,8.86"/>
        <path class="st3" d="M139.59,63.19s-.8-1.93,3.86-4.09"/>
        <path class="st3" d="M194.48,59.21s13.18-5.8,5.34-8.52"/>
        <path class="st3" d="M143.57,44.55s-8.98,2.39-9.55,5.23"/>
        <path class="st3" d="M194.37,33.41s18.75.57-3.41,8.52"/>
        <path class="st3" d="M163.68,23.75s-65.58,17.5-31.48,30.34"/>
        <path class="st3" d="M143.11,75.46s1.36,8.41,21.37,7.5c20-.91,29.89-8.41,29.89-8.41"/>
        <path class="st3" d="M198.34,117.62s1.34,4.12,5.68,2.84c3.86-1.14-.11-4.2-1.25-2.16-.42.76-1.93,3.98,3.75,5.23"/>
      </g>
    </g>
  </g>
</svg>